<?xml version="1.0" encoding="UTF-8" standalone="no"?>
<!DOCTYPE svg PUBLIC "-//W3C//DTD SVG 1.1//EN" "http://www.w3.org/Graphics/SVG/1.1/DTD/svg11.dtd">
<svg width="100%" height="100%" viewBox="0 0 512 512" version="1.1" xmlns="http://www.w3.org/2000/svg" xmlns:xlink="http://www.w3.org/1999/xlink" xml:space="preserve" xmlns:serif="http://www.serif.com/" style="fill-rule:evenodd;clip-rule:evenodd;stroke-linejoin:round;stroke-miterlimit:2;">
    <g transform="matrix(1.49663,0,0,1.49663,-105.831,-119.115)">
        <g transform="matrix(1,0,0,1,-123.222,-280.383)">
            <path d="M364.58,407.58C299.29,407.58 246.37,460.51 246.37,525.79C246.37,574.02 275.25,615.5 316.66,633.88C318.97,632.9 321.62,632.67 324.4,633.57C324.51,633.55 324.86,633.65 325.6,634C326.67,633.66 327.88,633.53 328.97,633.29C331.43,632.75 333.92,632.4 336.38,631.88C341.95,630.71 347.39,628.96 352.96,627.8C359.12,626.52 365.49,629.53 367.24,635.91C367.96,638.53 367.61,641.45 366.45,643.98C430.87,642.98 482.79,590.45 482.79,525.79C482.79,461.13 429.86,407.58 364.58,407.58Z" style="fill:rgb(233,231,235);fill-rule:nonzero;"/>
        </g>
        <g transform="matrix(1,0,0,1,-123.222,-280.383)">
            <path d="M365.46,408.74C300.66,408.74 248.13,461.27 248.13,526.07C248.13,573.04 275.74,613.56 315.61,632.3C319.81,630.89 324.2,630.11 328.51,630.11C330.33,630.11 332.1,630.24 333.84,630.47C337.67,628 341.94,626.14 346.36,624.98C347.75,622.5 350.07,620.56 353.31,619.87C352.95,613.81 356.67,607.47 364.48,607.47C372.29,607.47 376.1,613.98 375.63,620.1C377.58,620.93 379.09,622.27 380.17,623.9C386.51,624.58 392.32,626.69 397.35,629.91C398.66,629.77 399.96,629.7 401.26,629.7C406.29,629.7 411.04,630.6 415.4,632.24C455.23,613.48 482.81,573.01 482.81,526.06C482.81,461.26 430.28,408.73 365.48,408.73L365.46,408.74Z" style="fill:rgb(233,231,235);fill-rule:nonzero;"/>
        </g>
        <g transform="matrix(1,0,0,1,-123.222,-280.383)">
            <path d="M375.69,475.27L376.69,496.96L387.1,500.62L372.34,500.62L371.24,470.55L392.02,470.55L375.69,475.27Z" style="fill:rgb(52,59,88);fill-rule:nonzero;"/>
        </g>
        <g transform="matrix(1,0,0,1,-123.222,-280.383)">
            <path d="M384.34,623.5L384.34,623.44L382.65,558.88L382.73,551.82L397.63,546.37L376.13,547.07L379.77,621.29C381.31,621.96 382.84,622.69 384.35,623.49L384.34,623.5Z" style="fill:rgb(52,59,88);fill-rule:nonzero;"/>
        </g>
        <g transform="matrix(1,0,0,1,-123.222,-280.383)">
            <path d="M292.56,426.92L292.56,436.25C292.56,436.25 319.9,435.16 319.9,458.38L319.9,482.18L342.98,467.26L444.08,467.26C449.95,467.26 455.79,468.33 461.22,470.56C466.21,472.61 470.96,475.67 470.96,479.88L470.96,433.47L383.05,433.47L383.05,426.98L292.56,426.92Z" style="fill:rgb(15,75,110);fill-rule:nonzero;"/>
            <path d="M361.33,540.6C359.81,540.91 351.31,545.88 349.22,547.06C337.87,553.46 327.47,561.36 317.37,569.54L320.36,502.37C334.1,490.83 349.7,480.78 366.5,474.53L368.15,502.92L357.22,506.75L441.86,506.75L441.86,540.61L361.32,540.61L361.33,540.6Z" style="fill:rgb(15,75,110);fill-rule:nonzero;"/>
            <path d="M361.43,611.22C363.11,609.54 365.59,608.51 367.96,608.51C369.13,608.51 370.23,608.73 371.24,609.12L368.34,552.31C353.25,559.61 338.43,567.85 325.26,578.3C323.34,579.82 316.25,585.37 315.34,586.95C314.97,587.6 314.89,587.84 314.8,588.59C312.96,602.36 318.49,617.31 304.29,626.13C302.21,627.42 299.09,628.25 297.22,629.43C296.53,629.86 296.07,629.94 296.27,630.94L334.49,631.84L334.49,612.1C334.49,611.89 335.6,609.53 335.88,609.12C338.81,604.83 345.45,604.12 349.26,607.7C349.99,608.39 351.96,611.91 351.96,612.64L351.96,617.75C353.13,617.08 354.37,616.53 355.68,616.11C356.84,615.5 358.04,615.01 359.26,614.65C359.75,613.34 360.52,612.11 361.43,611.21L361.43,611.22Z" style="fill:rgb(15,75,110);fill-rule:nonzero;"/>
        </g>
        <g transform="matrix(1,0,0,1,-123.222,-280.383)">
            <rect x="313.4" y="419.89" width="55.13" height="8.66" style="fill:rgb(15,75,110);"/>
        </g>
        <g transform="matrix(1,0,0,1,-123.222,-280.383)">
            <path d="M347.24,396.48L358.09,396.48L358.09,419.89L323.83,419.89C323.83,406.97 334.32,396.48 347.24,396.48Z" style="fill:rgb(15,75,110);fill-rule:nonzero;"/>
        </g>
        <g transform="matrix(1,0,0,1,-123.222,-280.383)">
            <path d="M351.96,612.66L351.96,637.47L376.12,634.39L370.63,597.19" style="fill:rgb(15,75,110);fill-rule:nonzero;"/>
        </g>
        <g transform="matrix(1,0,0,1,-123.222,-280.383)">
            <path d="M411.76,632.84C404.26,627.86 397.35,622.05 390.94,615.75C355.67,641.17 308.49,651.58 266.73,636.31C253.51,647.45 237.01,654.1 220.02,657.2C222.09,659.49 223.98,661.92 225.81,664.43C235.92,664.82 246.22,664.86 256.28,664.01C293.41,660.84 328.59,642.95 366.19,644.33C397.12,645.47 425.27,662.02 456.07,664.31C470.55,665.38 487.59,662.11 501.09,656.79C501.41,656.67 501.98,656.7 501.91,656.27C470.36,658.19 438.03,650.29 411.75,632.85L411.76,632.84Z" style="fill:rgb(15,75,110);fill-rule:nonzero;"/>
            <path d="M408.45,672.35C408.52,672.89 407.8,672.62 407.48,672.57C405.51,672.26 403.3,671.43 401.29,670.99C377.62,665.79 352.16,663.76 328.01,666.72C317.92,667.96 308.09,670.69 298.05,672.29C277.26,675.6 255.43,676.81 234.64,673.08C250.66,673.21 266.47,671.23 282.02,667.61C296.8,664.16 311.76,658.45 326.82,656.59C354.36,653.18 383.1,662.77 408.45,672.35Z" style="fill:rgb(15,75,110);fill-rule:nonzero;"/>
            <path d="M353.12,627.48L344.48,631.01C318.86,639.27 290.94,637.91 265.57,629.44C256.91,635.53 247.95,641.71 237.63,644.63L243.87,640.29C253,633.29 261.89,625.72 268.28,616.05C271.6,617.5 274.73,619.38 278.04,620.85C300.57,630.89 328.93,633.38 353.12,627.48Z" style="fill:rgb(15,75,110);fill-rule:nonzero;"/>
            <path d="M473.26,670.86L470.44,672.06C431.93,687.16 399.14,657.08 361.94,652.77L351.43,651.2C373.87,649.4 395.85,654.69 417.06,661.25C422.68,662.99 428.22,665.2 433.85,666.84C446.49,670.53 460.15,672.26 473.27,670.87L473.26,670.86Z" style="fill:rgb(15,75,110);fill-rule:nonzero;"/>
            <path d="M479.53,649.11L476.7,649.4C457.23,646.94 438.39,640.63 421.4,630.98C419.67,630 417.77,628.9 416.23,627.65C424.71,630.01 433.58,626.99 441.14,623.19C449.02,637.2 464.17,645.69 479.54,649.1L479.53,649.11Z" style="fill:rgb(15,75,110);fill-rule:nonzero;"/>
            <path d="M416.81,681.89C416.88,682.43 416.16,682.16 415.84,682.11C412.5,681.58 409.16,680.71 405.83,680.18C374.97,675.28 343.58,675.09 312.45,677.13C312.13,677.15 311.04,677.34 311.1,676.82C345.87,667.86 382.85,671.48 416.81,681.89Z" style="fill:rgb(15,75,110);fill-rule:nonzero;"/>
        </g>
        <g transform="matrix(1,0,0,1,-123.222,-280.383)">
            <path d="M290.37,563.94L290.5,563.21L290.75,563.56L290.37,563.94Z" style="fill:rgb(2,38,43);fill-opacity:0.6;fill-rule:nonzero;"/>
        </g>
        <g transform="matrix(1,0,0,1,-123.222,-280.383)">
            <path d="M515.87,611.58C519.43,604.9 522.53,598.02 525.16,590.98C537.26,558.61 539.44,522.92 530.82,488.9C530.37,487.1 528.54,486.01 526.74,486.47C524.95,486.92 523.86,488.75 524.31,490.54C532.6,523.24 530.5,557.53 518.89,588.63C516.79,594.25 514.37,599.78 511.65,605.17C509.44,609.55 507.02,613.84 504.4,618.03C504.11,618.51 503.81,618.98 503.5,619.45C502.23,621.46 500.91,623.44 499.52,625.39C498.86,626.35 498.17,627.31 497.47,628.26C496.57,629.49 495.65,630.7 494.7,631.91C489.37,638.78 483.43,645.27 476.9,651.33C475.06,653.03 473.17,654.71 471.24,656.34C467.29,659.68 463.14,662.87 458.81,665.88C455.38,668.26 451.69,670.66 447.94,672.84C444.63,674.76 441.28,676.52 438.01,677.99C437.87,678.06 437.73,678.13 437.6,678.21L437.57,678.23L437.55,678.23L437.39,678.36L437.24,678.48L437.18,678.52L437.11,678.58L436.92,678.77L436.88,678.82L436.86,678.84L436.84,678.87L436.81,678.9C436.58,679.18 436.38,679.5 436.25,679.86C436.11,680.22 436.04,680.6 436.03,680.97L436.03,681.33L436.06,681.49L436.1,681.74L436.16,681.97C436.2,682.13 436.26,682.28 436.32,682.43C436.39,682.57 436.46,682.71 436.54,682.84L436.56,682.86L436.58,682.89L436.69,683.05L436.81,683.2L436.85,683.26L437.15,683.56L437.17,683.56L437.23,683.63C437.51,683.86 437.83,684.05 438.19,684.19L459.9,692.46L481.56,700.72C481.75,700.79 481.94,700.85 482.15,700.89C483.12,701.28 484.25,701.17 485.13,700.55C485.3,700.44 485.45,700.3 485.6,700.15L533.16,650.87C534.19,649.8 534.31,648.19 533.56,646.99L515.87,611.58Z" style="fill:rgb(15,75,110);fill-rule:nonzero;"/>
        </g>
        <g transform="matrix(1,0,0,1,-123.222,-280.383)">
            <path d="M404.51,688.74C371.81,697.03 337.52,694.93 306.43,683.31C290.77,677.46 275.92,669.2 262.48,658.61C260.48,657.05 258.5,655.42 256.56,653.74C249.02,647.21 241.98,639.9 235.58,631.84C234.27,630.21 232.99,628.53 231.75,626.83C231.38,626.34 231.02,625.85 230.66,625.35C230.16,624.65 229.66,623.95 229.17,623.24C226.79,619.8 224.4,616.12 222.21,612.36C220.32,609.12 218.59,605.83 217.14,602.61C217.11,602.55 217.09,602.5 217.06,602.44C217.06,602.42 217.04,602.39 217.03,602.37C216.97,602.25 216.91,602.14 216.84,602.03L216.82,602L216.82,601.97L216.7,601.81L216.58,601.67L216.53,601.61L216.47,601.54L216.37,601.43L216.28,601.35L216.24,601.31L216.21,601.29L216.19,601.26L216.15,601.24C216.1,601.2 216.05,601.16 216,601.12C215.76,600.94 215.49,600.79 215.2,600.68C214.83,600.54 214.46,600.47 214.09,600.46L213.72,600.46L213.56,600.49L213.32,600.53L213.08,600.59C212.93,600.63 212.78,600.69 212.62,600.75C212.48,600.82 212.35,600.89 212.22,600.97L212.16,601.01L212,601.12L211.8,601.28L211.73,601.34L211.54,601.53L211.5,601.58L211.42,601.66C211.19,601.94 211,602.26 210.86,602.62L202.59,624.32L194.34,645.99C194.26,646.18 194.2,646.37 194.16,646.58C193.77,647.55 193.89,648.68 194.5,649.56C194.61,649.73 194.75,649.88 194.9,650.03L244.19,697.59C245.25,698.62 246.86,698.74 248.06,697.99L283.48,680.3C290.15,683.86 297.03,686.96 304.07,689.59C336.44,701.69 372.13,703.87 406.15,695.25C407.95,694.79 409.04,692.97 408.59,691.17C408.13,689.38 406.31,688.29 404.51,688.74Z" style="fill:rgb(15,75,110);fill-rule:nonzero;"/>
        </g>
        <g transform="matrix(1,0,0,1,-123.222,-280.383)">
            <path d="M199.2,573.15C199.65,574.94 201.48,576.03 203.27,575.58C205.07,575.12 206.16,573.3 205.7,571.5C197.42,538.81 199.51,504.51 211.13,473.42C217.24,457.08 225.97,441.62 237.23,427.73C243.66,419.77 250.92,412.33 258.98,405.54C262.87,402.26 266.95,399.13 271.21,396.17C274.64,393.78 278.33,391.39 282.08,389.2C285.38,387.28 288.73,385.52 292.01,384.05C292.15,383.99 292.29,383.91 292.42,383.83L292.44,383.81L292.47,383.81L292.63,383.69L292.78,383.57L292.84,383.52L292.9,383.46L293.01,383.36L293.09,383.27L293.14,383.23L293.16,383.2L293.18,383.18L293.21,383.14C293.44,382.86 293.63,382.55 293.77,382.19C293.91,381.82 293.98,381.45 293.99,381.08L293.99,380.85L293.98,380.71L293.96,380.55L293.92,380.31L293.86,380.07C293.82,379.92 293.76,379.77 293.69,379.62C293.63,379.47 293.55,379.34 293.47,379.21L293.45,379.18L293.45,379.15L293.33,378.99L293.21,378.84L293.16,378.79L293.1,378.72L292.87,378.49L292.84,378.47L292.82,378.44L292.78,378.42C292.5,378.18 292.18,377.99 291.83,377.86L270.12,369.58L248.46,361.33C248.27,361.25 248.07,361.19 247.87,361.15C246.89,360.77 245.77,360.88 244.89,361.49C244.72,361.61 244.56,361.74 244.42,361.89L196.86,411.18C195.83,412.25 195.7,413.85 196.46,415.05L214.14,450.47C210.58,457.14 207.48,464.02 204.85,471.07C192.76,503.43 190.58,539.12 199.2,573.15Z" style="fill:rgb(15,75,110);fill-rule:nonzero;"/>
        </g>
        <g transform="matrix(1,0,0,1,-123.222,-280.383)">
            <path d="M496.49,432.72C497.59,434.19 498.66,435.68 499.72,437.2C502.11,440.63 504.5,444.32 506.69,448.07C508.61,451.37 510.37,454.72 511.84,458C511.9,458.14 511.98,458.28 512.06,458.41L512.08,458.43L512.08,458.46L512.2,458.62L512.32,458.77L512.37,458.83L512.43,458.89L512.53,459L512.62,459.08L512.66,459.12L512.69,459.14L512.71,459.17L512.75,459.2C513.03,459.43 513.35,459.62 513.7,459.76C514.07,459.9 514.44,459.96 514.81,459.97L515.18,459.97L515.34,459.95L515.58,459.91L515.82,459.85C515.97,459.8 516.12,459.75 516.27,459.68C516.42,459.61 516.55,459.54 516.68,459.46L516.71,459.44L516.74,459.44L516.9,459.32L517.05,459.2L517.1,459.15L517.17,459.09L517.4,458.86L517.42,458.83L517.45,458.81L517.47,458.77C517.71,458.49 517.9,458.17 518.03,457.81L526.31,436.11L534.56,414.45C534.64,414.26 534.7,414.06 534.74,413.86C535.13,412.88 535.01,411.76 534.4,410.88C534.28,410.71 534.15,410.55 534,410.4L484.71,362.85C483.65,361.82 482.04,361.69 480.84,362.45L445.42,380.13C438.75,376.57 431.87,373.47 424.82,370.84C392.46,358.75 356.77,356.57 322.74,365.19C320.95,365.64 319.86,367.47 320.31,369.26C320.77,371.05 322.59,372.15 324.39,371.69C357.08,363.41 391.38,365.5 422.47,377.12C438,382.92 452.75,391.11 466.1,401.57C477.33,410.36 487.58,420.77 496.49,432.72Z" style="fill:rgb(15,75,110);fill-rule:nonzero;"/>
        </g>
    </g>
</svg>
