<?xml version="1.0" encoding="UTF-8" standalone="no"?>
<!DOCTYPE svg PUBLIC "-//W3C//DTD SVG 1.1//EN" "http://www.w3.org/Graphics/SVG/1.1/DTD/svg11.dtd">
<svg width="100%" height="100%" viewBox="0 0 6439 1528" version="1.1" xmlns="http://www.w3.org/2000/svg" xmlns:xlink="http://www.w3.org/1999/xlink" xml:space="preserve" xmlns:serif="http://www.serif.com/" style="fill-rule:evenodd;clip-rule:evenodd;stroke-linejoin:round;stroke-miterlimit:2;">
    <g transform="matrix(5.55556,0,0,5.55556,0,0)">
        <g transform="matrix(1,0,0,1,4.88,13.795)">
            <g transform="matrix(1,0,0,1,-664.9,-406.18)">
                <path d="M664.91,407.84L743.45,407.84L743.45,427.77L686.16,427.77L688.15,425.78L688.15,517.94L664.9,517.94L664.9,407.85L664.91,407.84ZM731.49,452.51L731.49,472.27L685.66,472.27L685.66,452.51L731.49,452.51Z" style="fill:rgb(15,75,110);fill-rule:nonzero;"/>
                <path d="M758.89,407.84L811.36,407.84C816.89,407.84 822.01,408.75 826.72,410.58C831.42,412.41 835.52,414.95 839.01,418.22C842.5,421.49 845.21,425.36 847.15,429.84C849.09,434.32 850.06,439.22 850.06,444.54C850.06,449.86 849.09,454.75 847.15,459.24C845.21,463.72 842.53,467.57 839.1,470.78C835.67,473.99 831.57,476.54 826.81,478.42C822.05,480.3 816.9,481.24 811.37,481.24L779.65,481.24L779.65,461.65L808.21,461.65C810.87,461.65 813.3,461.23 815.52,460.4C817.73,459.57 819.64,458.38 821.25,456.83C822.85,455.28 824.1,453.45 824.99,451.35C825.87,449.25 826.32,446.98 826.32,444.54C826.32,442.1 825.82,439.7 824.83,437.65C823.83,435.6 822.53,433.83 820.93,432.34C819.32,430.85 817.41,429.71 815.2,428.94C812.98,428.17 810.66,427.78 808.23,427.78L780.17,427.78L782.16,425.79L782.16,517.95L758.91,517.95L758.91,407.86L758.89,407.84ZM801.73,478.91L824.98,474.43L850.88,517.93L824.31,517.93L801.73,478.91Z" style="fill:rgb(15,75,110);fill-rule:nonzero;"/>
                <path d="M901.03,407.84L927.6,407.84L972.1,517.93L947.36,517.93L938.06,494.35L940.72,496.18L887.75,496.18L890.41,494.35L881.28,517.93L856.54,517.93L901.04,407.84L901.03,407.84ZM893.89,477.75L934.74,477.75L933.58,479.58L913.49,429.77L914.98,429.77L895.05,479.58L893.89,477.75Z" style="fill:rgb(15,75,110);fill-rule:nonzero;"/>
                <path d="M984.03,407.84L1003.64,407.84L1044.65,457.82L1041.99,457.82L1083,407.84L1102.59,407.84L1102.59,517.93L1079.67,517.93L1079.67,442.54L1081,443.04L1044.97,485.55L1041.48,485.55L1005.45,443.04L1006.78,442.54L1006.78,517.93L984.03,517.93L984.03,407.84Z" style="fill:rgb(15,75,110);fill-rule:nonzero;"/>
                <path d="M1205.39,498.01L1205.39,517.94L1127.51,517.94L1127.51,407.85L1203.89,407.85L1203.89,427.78L1148.6,427.78L1150.59,425.79L1150.59,500.01L1148.6,498.02L1205.39,498.02L1205.39,498.01ZM1198.25,452.01L1198.25,471.27L1148.1,471.27L1148.1,452.01L1198.25,452.01Z" style="fill:rgb(15,75,110);fill-rule:nonzero;"/>
                <path d="M1212.53,407.84L1236.28,407.84L1259.53,494.19L1258.53,494.19L1281.61,409.5L1304.19,409.5L1327.27,494.19L1326.27,494.19L1349.35,407.84L1373.1,407.84L1342.22,517.93L1312.66,517.93L1292.4,446.2L1293.4,446.2L1272.98,517.93L1243.59,517.93L1212.54,407.84L1212.53,407.84Z" style="fill:rgb(15,75,110);fill-rule:nonzero;"/>
                <path d="M1414.86,515.45C1407.72,512.68 1401.52,508.81 1396.26,503.83C1391,498.85 1386.9,492.9 1383.97,485.98C1381.04,479.06 1379.57,471.45 1379.57,463.15C1379.57,454.85 1381.04,447.21 1383.97,440.23C1386.9,433.26 1391,427.25 1396.26,422.21C1401.52,417.17 1407.72,413.24 1414.86,410.42C1422,407.6 1429.78,406.19 1438.19,406.19C1446.6,406.19 1454.57,407.6 1461.77,410.42C1468.96,413.24 1475.16,417.17 1480.37,422.21C1485.57,427.25 1489.64,433.25 1492.57,440.23C1495.5,447.2 1496.97,454.84 1496.97,463.15C1496.97,471.46 1495.5,479.23 1492.57,486.15C1489.64,493.07 1485.57,498.99 1480.37,503.92C1475.16,508.85 1468.97,512.69 1461.77,515.46C1454.57,518.23 1446.71,519.61 1438.19,519.61C1429.67,519.61 1422,518.22 1414.86,515.46L1414.86,515.45ZM1451.97,495.69C1456.18,494.03 1459.83,491.71 1462.93,488.72C1466.03,485.73 1468.46,482.05 1470.24,477.68C1472.01,473.31 1472.9,468.46 1472.9,463.15C1472.9,457.84 1472.01,452.85 1470.24,448.54C1468.47,444.22 1466.03,440.52 1462.93,437.41C1459.83,434.31 1456.18,431.93 1451.97,430.27C1447.76,428.61 1443.17,427.78 1438.19,427.78C1433.21,427.78 1428.94,428.61 1424.74,430.27C1420.53,431.93 1416.88,434.31 1413.78,437.41C1410.68,440.51 1408.24,444.22 1406.47,448.54C1404.7,452.86 1403.81,457.73 1403.81,463.15C1403.81,468.57 1404.69,473.31 1406.47,477.68C1408.24,482.05 1410.68,485.73 1413.78,488.72C1416.88,491.71 1420.53,494.03 1424.74,495.69C1428.95,497.35 1433.43,498.18 1438.19,498.18C1442.95,498.18 1447.76,497.35 1451.97,495.69Z" style="fill:rgb(15,75,110);fill-rule:nonzero;"/>
                <path d="M1514.91,407.84L1567.38,407.84C1572.91,407.84 1578.03,408.75 1582.74,410.58C1587.44,412.41 1591.54,414.95 1595.03,418.22C1598.52,421.49 1601.23,425.36 1603.17,429.84C1605.11,434.32 1606.08,439.22 1606.08,444.54C1606.08,449.86 1605.11,454.75 1603.17,459.24C1601.23,463.72 1598.55,467.57 1595.12,470.78C1591.69,473.99 1587.59,476.54 1582.83,478.42C1578.07,480.3 1572.92,481.24 1567.39,481.24L1535.67,481.24L1535.67,461.65L1564.23,461.65C1566.89,461.65 1569.32,461.23 1571.54,460.4C1573.75,459.57 1575.66,458.38 1577.27,456.83C1578.87,455.28 1580.12,453.45 1581.01,451.35C1581.89,449.25 1582.34,446.98 1582.34,444.54C1582.34,442.1 1581.84,439.7 1580.85,437.65C1579.85,435.6 1578.55,433.83 1576.95,432.34C1575.34,430.85 1573.43,429.71 1571.22,428.94C1569,428.17 1566.68,427.78 1564.25,427.78L1536.19,427.78L1538.18,425.79L1538.18,517.95L1514.93,517.95L1514.93,407.86L1514.91,407.84ZM1557.75,478.91L1581,474.43L1606.9,517.93L1580.33,517.93L1557.75,478.91Z" style="fill:rgb(15,75,110);fill-rule:nonzero;"/>
                <path d="M1625,407.84L1648.08,407.84L1648.08,517.93L1625,517.93L1625,407.84ZM1665.51,473.93L1645.58,473.93L1645.58,454.34L1667.5,454.34L1693.74,407.85L1718.81,407.85L1684.77,466.3L1684.6,462.98L1721.3,517.94L1693.9,517.94L1665.51,473.94L1665.51,473.93Z" style="fill:rgb(15,75,110);fill-rule:nonzero;"/>
                <path d="M1751.69,483.73C1751.91,486.28 1752.57,488.55 1753.68,490.54C1754.78,492.53 1756.25,494.19 1758.08,495.52C1759.91,496.85 1761.98,497.87 1764.31,498.59C1766.63,499.31 1769.18,499.67 1771.95,499.67C1774.38,499.67 1776.71,499.4 1778.92,498.84C1781.13,498.29 1783.07,497.43 1784.73,496.27C1786.39,495.11 1787.74,493.67 1788.8,491.95C1789.85,490.23 1790.38,488.27 1790.38,486.05C1790.38,483.39 1789.6,481.21 1788.06,479.49C1786.51,477.78 1784.54,476.36 1782.17,475.26C1779.79,474.16 1777.24,473.24 1774.53,472.52C1771.82,471.8 1769.19,471.17 1766.64,470.61C1762.32,469.61 1757.92,468.43 1753.44,467.04C1748.96,465.66 1744.91,463.83 1741.32,461.56C1737.72,459.29 1734.76,456.28 1732.44,452.51C1730.12,448.75 1728.95,443.99 1728.95,438.23C1728.95,433.14 1729.92,428.63 1731.86,424.7C1733.8,420.77 1736.54,417.42 1740.08,414.65C1743.62,411.88 1747.94,409.78 1753.03,408.34C1758.12,406.9 1763.88,406.18 1770.3,406.18C1776.72,406.18 1782.09,406.96 1787.07,408.5C1792.05,410.05 1796.29,412.29 1799.77,415.23C1803.26,418.16 1805.97,421.68 1807.91,425.77C1809.85,429.87 1810.92,434.46 1811.15,439.55L1786.74,439.55C1786.63,437.34 1786.1,435.4 1785.16,433.74C1784.22,432.08 1782.97,430.64 1781.42,429.42C1779.87,428.2 1778.07,427.29 1776.02,426.68C1773.97,426.07 1771.79,425.77 1769.46,425.77C1767.13,425.77 1765.11,426.02 1763.07,426.52C1761.02,427.02 1759.22,427.77 1757.67,428.76C1756.12,429.76 1754.87,431 1753.93,432.5C1752.99,433.99 1752.52,435.79 1752.52,437.9C1752.52,440.34 1753.29,442.33 1754.85,443.88C1756.4,445.43 1758.34,446.76 1760.66,447.87C1762.99,448.98 1765.53,449.84 1768.3,450.44C1771.07,451.05 1773.61,451.63 1775.94,452.18C1780.37,453.18 1784.82,454.37 1789.31,455.75C1793.79,457.14 1797.89,459.02 1801.6,461.4C1805.31,463.78 1808.32,466.88 1810.65,470.7C1812.97,474.52 1814.14,479.42 1814.14,485.4C1814.14,490.83 1813.09,495.67 1810.99,499.93C1808.89,504.19 1805.93,507.79 1802.11,510.72C1798.29,513.65 1793.75,515.87 1788.49,517.36C1783.23,518.85 1777.5,519.6 1771.3,519.6C1764.66,519.6 1758.68,518.74 1753.37,517.03C1748.06,515.32 1743.52,512.91 1739.75,509.81C1735.99,506.71 1733.02,502.95 1730.87,498.52C1728.71,494.09 1727.52,489.17 1727.3,483.74L1751.71,483.74L1751.69,483.73Z" style="fill:rgb(15,75,110);fill-rule:nonzero;"/>
            </g>
            <g transform="matrix(1,0,0,1,-664.9,-406.18)">
                <path d="M664.96,541.85L673.43,541.85L756.45,643.14L755.12,643.64L755.12,541.85L762.59,541.85L762.59,651.94L754.12,651.94L671.09,550.48L672.42,549.98L672.42,651.93L664.95,651.93L664.95,541.84L664.96,541.85Z" style="fill:rgb(15,75,110);fill-rule:nonzero;"/>
                <path d="M870.03,645.3L870.03,651.94L797.8,651.94L797.8,541.85L868.21,541.85L868.21,548.33L803.45,548.33L805.44,546.34L805.44,647.3L803.45,645.31L870.04,645.31L870.03,645.3ZM859.57,591.83L859.57,598.47L802.95,598.47L802.95,591.83L859.57,591.83Z" style="fill:rgb(15,75,110);fill-rule:nonzero;"/>
                <path d="M885.64,541.85L971.16,541.85L971.16,548.33L885.64,548.33L885.64,541.85ZM924.67,545.83L932.14,545.83L932.14,651.94L924.67,651.94L924.67,545.83Z" style="fill:rgb(15,75,110);fill-rule:nonzero;"/>
                <path d="M984.61,541.85L992.58,541.85L1024.96,644.97L1023.63,644.97L1059.33,541.85L1067.63,541.85L1103.33,644.97L1102,644.97L1134.38,541.85L1142.52,541.85L1107.65,651.94L1098.02,651.94L1062.82,548.49L1064.15,548.49L1028.95,651.94L1019.32,651.94L984.61,541.85Z" style="fill:rgb(15,75,110);fill-rule:nonzero;"/>
                <path d="M1191.51,649.36C1184.64,646.54 1178.72,642.63 1173.74,637.65C1168.76,632.67 1164.88,626.69 1162.12,619.72C1159.35,612.75 1157.97,605.11 1157.97,596.8C1157.97,588.49 1159.35,580.89 1162.12,573.97C1164.89,567.05 1168.76,561.1 1173.74,556.12C1178.72,551.14 1184.64,547.24 1191.51,544.41C1198.37,541.59 1205.96,540.18 1214.26,540.18C1222.56,540.18 1230.14,541.59 1237.01,544.41C1243.87,547.23 1249.8,551.13 1254.78,556.12C1259.76,561.11 1263.63,567.05 1266.4,573.97C1269.17,580.89 1270.55,588.5 1270.55,596.8C1270.55,605.1 1269.16,612.74 1266.4,619.72C1263.63,626.69 1259.76,632.67 1254.78,637.65C1249.8,642.63 1243.87,646.53 1237.01,649.36C1230.14,652.18 1222.56,653.59 1214.26,653.59C1205.96,653.59 1198.37,652.18 1191.51,649.36ZM1233.93,642.97C1239.85,640.54 1244.97,637.13 1249.29,632.76C1253.61,628.39 1256.95,623.13 1259.34,616.98C1261.72,610.84 1262.91,604.11 1262.91,596.81C1262.91,589.51 1261.72,582.81 1259.34,576.72C1256.96,570.63 1253.61,565.4 1249.29,561.03C1244.97,556.66 1239.85,553.25 1233.93,550.82C1228.01,548.39 1221.45,547.17 1214.25,547.17C1207.05,547.17 1200.63,548.39 1194.66,550.82C1188.68,553.26 1183.54,556.66 1179.22,561.03C1174.9,565.41 1171.55,570.64 1169.17,576.72C1166.79,582.81 1165.6,589.51 1165.6,596.81C1165.6,604.11 1166.79,610.84 1169.17,616.98C1171.55,623.12 1174.9,628.38 1179.22,632.76C1183.54,637.13 1188.68,640.54 1194.66,642.97C1200.64,645.41 1207.17,646.62 1214.25,646.62C1221.33,646.62 1228,645.4 1233.93,642.97Z" style="fill:rgb(15,75,110);fill-rule:nonzero;"/>
                <path d="M1298.78,541.85L1342.12,541.85C1347.32,541.85 1352.14,542.51 1356.57,543.84C1361,545.17 1364.82,547.19 1368.03,549.9C1371.24,552.61 1373.78,556.07 1375.67,560.28C1377.55,564.49 1378.49,569.47 1378.49,575.22C1378.49,580.2 1377.58,584.71 1375.75,588.75C1373.92,592.79 1371.38,596.25 1368.11,599.13C1364.84,602.01 1360.97,604.22 1356.49,605.77C1352.01,607.32 1347.05,608.09 1341.63,608.09L1303.77,608.09L1303.77,601.45L1341.8,601.45C1345.89,601.45 1349.71,600.84 1353.26,599.62C1356.8,598.4 1359.9,596.66 1362.56,594.39C1365.22,592.12 1367.29,589.38 1368.79,586.17C1370.28,582.96 1371.03,579.31 1371.03,575.21C1371.03,570.56 1370.28,566.58 1368.79,563.25C1367.29,559.93 1365.22,557.16 1362.56,554.95C1359.9,552.74 1356.8,551.1 1353.26,550.05C1349.72,549 1345.9,548.47 1341.8,548.47L1304.27,548.47L1306.26,546.48L1306.26,651.92L1298.79,651.92L1298.79,541.83L1298.78,541.85ZM1342.94,606.11L1350.91,604.61L1379.64,651.93L1370.84,651.93L1342.94,606.1L1342.94,606.11Z" style="fill:rgb(15,75,110);fill-rule:nonzero;"/>
                <path d="M1408.03,541.85L1415.5,541.85L1415.5,651.94L1408.03,651.94L1408.03,541.85ZM1446.39,602.12L1413.01,602.12L1413.01,595.64L1446.88,595.64L1478.6,541.84L1487.57,541.84L1452.53,600.46L1452.36,597.14L1489.89,651.94L1480.43,651.94L1446.39,602.13L1446.39,602.12Z" style="fill:rgb(15,75,110);fill-rule:nonzero;"/>
            </g>
        </g>
    </g>
</svg>
