<?xml version="1.0" encoding="UTF-8"?>
<svg width="900" height="600" viewBox="0 0 900 600" xmlns="http://www.w3.org/2000/svg">
  
  <!-- Title -->
  <text x="450" y="30" text-anchor="middle" fill="#333333" font-family="Arial, sans-serif" font-size="20" font-weight="bold">
    Multi-Plane Microservices Architecture
  </text>
  
  <!-- Control Plane -->
  <rect x="50" y="60" width="800" height="100" rx="8" fill="#e3f2fd" stroke="#2196f3" stroke-width="2"/>
  <text x="70" y="85" fill="#2196f3" font-family="Arial, sans-serif" font-size="14" font-weight="bold">
    Control Plane
  </text>
  
  <rect x="80" y="100" width="140" height="40" rx="5" fill="#ffffff" stroke="#2196f3" stroke-width="1"/>
  <text x="150" y="118" text-anchor="middle" fill="#333333" font-family="Arial, sans-serif" font-size="11">
    Commodore
  </text>
  <text x="150" y="132" text-anchor="middle" fill="#666666" font-family="Arial, sans-serif" font-size="8">
    API &amp; Auth
  </text>
  
  <rect x="250" y="100" width="140" height="40" rx="5" fill="#ffffff" stroke="#2196f3" stroke-width="1"/>
  <text x="320" y="118" text-anchor="middle" fill="#333333" font-family="Arial, sans-serif" font-size="11">
    Quartermaster
  </text>
  <text x="320" y="132" text-anchor="middle" fill="#666666" font-family="Arial, sans-serif" font-size="8">
    Registry
  </text>
  
  <rect x="420" y="100" width="140" height="40" rx="5" fill="#ffffff" stroke="#2196f3" stroke-width="1"/>
  <text x="490" y="118" text-anchor="middle" fill="#333333" font-family="Arial, sans-serif" font-size="11">
    Purser
  </text>
  <text x="490" y="132" text-anchor="middle" fill="#666666" font-family="Arial, sans-serif" font-size="8">
    Billing
  </text>
  
  <rect x="590" y="100" width="140" height="40" rx="5" fill="#ffffff" stroke="#2196f3" stroke-width="1"/>
  <text x="660" y="118" text-anchor="middle" fill="#333333" font-family="Arial, sans-serif" font-size="11">
    Foghorn
  </text>
  <text x="660" y="132" text-anchor="middle" fill="#666666" font-family="Arial, sans-serif" font-size="8">
    Load Balancer
  </text>
  
  <!-- Data Plane -->
  <rect x="50" y="180" width="800" height="160" rx="8" fill="#fff3e0" stroke="#ff9800" stroke-width="2"/>
  <text x="70" y="205" fill="#ff9800" font-family="Arial, sans-serif" font-size="14" font-weight="bold">
    Data Plane - Event-Driven Analytics
  </text>
  
  <rect x="80" y="220" width="100" height="40" rx="5" fill="#ffffff" stroke="#ff9800" stroke-width="1"/>
  <text x="130" y="238" text-anchor="middle" fill="#333333" font-family="Arial, sans-serif" font-size="10">
    Decklog
  </text>
  <text x="130" y="252" text-anchor="middle" fill="#666666" font-family="Arial, sans-serif" font-size="8">
    Event Ingest
  </text>
  
  <rect x="200" y="220" width="160" height="60" rx="8" fill="#4caf50" stroke="#2e7d32" stroke-width="2"/>
  <text x="280" y="245" text-anchor="middle" fill="#ffffff" font-family="Arial, sans-serif" font-size="13" font-weight="bold">
    Kafka
  </text>
  <text x="280" y="260" text-anchor="middle" fill="#ffffff" font-family="Arial, sans-serif" font-size="10">
    Event Backbone
  </text>
  
  <rect x="380" y="220" width="100" height="40" rx="5" fill="#ffffff" stroke="#ff9800" stroke-width="1"/>
  <text x="430" y="238" text-anchor="middle" fill="#333333" font-family="Arial, sans-serif" font-size="10">
    Periscope
  </text>
  <text x="430" y="252" text-anchor="middle" fill="#666666" font-family="Arial, sans-serif" font-size="8">
    Analytics Write
  </text>
  
  <rect x="500" y="220" width="100" height="40" rx="5" fill="#ffffff" stroke="#ff9800" stroke-width="1"/>
  <text x="550" y="238" text-anchor="middle" fill="#333333" font-family="Arial, sans-serif" font-size="10">
    Periscope
  </text>
  <text x="550" y="252" text-anchor="middle" fill="#666666" font-family="Arial, sans-serif" font-size="8">
    Analytics Read
  </text>
  
  <rect x="620" y="220" width="100" height="40" rx="5" fill="#ffffff" stroke="#ff9800" stroke-width="1"/>
  <text x="670" y="238" text-anchor="middle" fill="#333333" font-family="Arial, sans-serif" font-size="10">
    Signalman
  </text>
  <text x="670" y="252" text-anchor="middle" fill="#666666" font-family="Arial, sans-serif" font-size="8">
    Real-time UI
  </text>
  
  <!-- Databases -->
  <rect x="380" y="280" width="100" height="40" rx="5" fill="#ffffff" stroke="#ff9800" stroke-width="1"/>
  <text x="430" y="298" text-anchor="middle" fill="#333333" font-family="Arial, sans-serif" font-size="10">
    ClickHouse
  </text>
  <text x="430" y="312" text-anchor="middle" fill="#666666" font-family="Arial, sans-serif" font-size="8">
    Time-series
  </text>
  
  <rect x="500" y="280" width="100" height="40" rx="5" fill="#ffffff" stroke="#ff9800" stroke-width="1"/>
  <text x="550" y="298" text-anchor="middle" fill="#333333" font-family="Arial, sans-serif" font-size="10">
    PostgreSQL
  </text>
  <text x="550" y="312" text-anchor="middle" fill="#666666" font-family="Arial, sans-serif" font-size="8">
    State &amp; Config
  </text>
  
  <!-- Media Plane -->
  <rect x="50" y="360" width="800" height="100" rx="8" fill="#e8f5e8" stroke="#4caf50" stroke-width="2"/>
  <text x="70" y="385" fill="#4caf50" font-family="Arial, sans-serif" font-size="14" font-weight="bold">
    Media Plane
  </text>
  
  <rect x="80" y="400" width="140" height="40" rx="5" fill="#ffffff" stroke="#4caf50" stroke-width="1"/>
  <text x="150" y="418" text-anchor="middle" fill="#333333" font-family="Arial, sans-serif" font-size="11">
    MistServer
  </text>
  <text x="150" y="432" text-anchor="middle" fill="#666666" font-family="Arial, sans-serif" font-size="8">
    Media Processing
  </text>
  
  <rect x="250" y="400" width="140" height="40" rx="5" fill="#ffffff" stroke="#4caf50" stroke-width="1"/>
  <text x="320" y="418" text-anchor="middle" fill="#333333" font-family="Arial, sans-serif" font-size="11">
    Helmsman
  </text>
  <text x="320" y="432" text-anchor="middle" fill="#666666" font-family="Arial, sans-serif" font-size="8">
    Edge Sidecar
  </text>
  
  <!-- Support Services -->
  <rect x="50" y="480" width="800" height="60" rx="8" fill="#f3e5f5" stroke="#9c27b0" stroke-width="2"/>
  <text x="70" y="505" fill="#9c27b0" font-family="Arial, sans-serif" font-size="14" font-weight="bold">
    Support &amp; Interface
  </text>
  
  <rect x="80" y="515" width="90" height="20" rx="3" fill="#ffffff" stroke="#9c27b0" stroke-width="1"/>
  <text x="125" y="528" text-anchor="middle" fill="#333333" font-family="Arial, sans-serif" font-size="9">
    Web Console
  </text>
  
  <rect x="180" y="515" width="90" height="20" rx="3" fill="#ffffff" stroke="#9c27b0" stroke-width="1"/>
  <text x="225" y="528" text-anchor="middle" fill="#333333" font-family="Arial, sans-serif" font-size="9">
    Marketing
  </text>
  
  <rect x="280" y="515" width="90" height="20" rx="3" fill="#ffffff" stroke="#9c27b0" stroke-width="1"/>
  <text x="325" y="528" text-anchor="middle" fill="#333333" font-family="Arial, sans-serif" font-size="9">
    Nginx
  </text>
  
  <rect x="380" y="515" width="90" height="20" rx="3" fill="#ffffff" stroke="#9c27b0" stroke-width="1"/>
  <text x="425" y="528" text-anchor="middle" fill="#333333" font-family="Arial, sans-serif" font-size="9">
    Prometheus
  </text>
  
  <rect x="480" y="515" width="90" height="20" rx="3" fill="#ffffff" stroke="#9c27b0" stroke-width="1"/>
  <text x="525" y="528" text-anchor="middle" fill="#333333" font-family="Arial, sans-serif" font-size="9">
    Grafana
  </text>
  
  <!-- Clean Data Flow Arrows -->
  <path d="M 180 240 L 200 250" stroke="#666666" stroke-width="2" fill="none" marker-end="url(#arrowhead)"/>
  <path d="M 360 250 L 380 240" stroke="#666666" stroke-width="2" fill="none" marker-end="url(#arrowhead)"/>
  <path d="M 430 260 L 430 280" stroke="#666666" stroke-width="2" fill="none" marker-end="url(#arrowhead)"/>
  <path d="M 480 250 L 500 280" stroke="#666666" stroke-width="2" fill="none" marker-end="url(#arrowhead)"/>
  <path d="M 490 140 L 550 220" stroke="#666666" stroke-width="1" fill="none"/>
  <path d="M 320 400 L 130 350 L 130 260" stroke="#666666" stroke-width="2" fill="none" marker-end="url(#arrowhead)"/>
  
  <!-- Arrow marker definition -->
  <defs>
    <marker id="arrowhead" markerWidth="8" markerHeight="6" refX="8" refY="3" orient="auto">
      <polygon points="0 0, 8 3, 0 6" fill="#666666"/>
    </marker>
  </defs>
</svg>