<?xml version="1.0" encoding="UTF-8" standalone="no"?>
<!DOCTYPE svg PUBLIC "-//W3C//DTD SVG 1.1//EN" "http://www.w3.org/Graphics/SVG/1.1/DTD/svg11.dtd">
<svg width="100%" height="100%" viewBox="0 0 27778 18523" version="1.1" xmlns="http://www.w3.org/2000/svg" xmlns:xlink="http://www.w3.org/1999/xlink" xml:space="preserve" xmlns:serif="http://www.serif.com/" style="fill-rule:evenodd;clip-rule:evenodd;">
    <g transform="matrix(5.55556,0,0,5.55556,0,0)">
        <g transform="matrix(5.55556,0,0,5.55556,0.016,-9.23685)">
            <g transform="matrix(1,0,0,1,450,30)">
                <g>
                    <g transform="matrix(1,0,0,1,-184.141,0)">
                        <text x="0px" y="0px" style="font-family:'Helvetica-Bold', 'Helvetica';font-weight:700;font-size:20px;fill:white;">Multi-Plane Microservices</text>
                    </g>
                    <g transform="matrix(1,0,0,1,66.328,0)">
                        <text x="0px" y="0px" style="font-family:'Helvetica-Bold', 'Helvetica';font-weight:700;font-size:20px;fill:white;">Architecture</text>
                    </g>
                </g>
            </g>
            <path d="M850,68L850,152C850,156.415 846.415,160 842,160L58,160C53.585,160 50,156.415 50,152L50,68C50,63.585 53.585,60 58,60L842,60C846.415,60 850,63.585 850,68Z" style="fill:rgb(227,242,253);stroke:rgb(33,150,243);stroke-width:2px;"/>
            <g transform="matrix(1,0,0,1,70,85)">
                <text x="0px" y="0px" style="font-family:'Helvetica-Bold', 'Helvetica';font-weight:700;font-size:14px;fill:rgb(33,150,243);">Control Plane</text>
            </g>
            <g transform="matrix(1,0,0,1,-11.2516,0)">
                <path d="M220,105L220,135C220,137.76 217.76,140 215,140L85,140C82.24,140 80,137.76 80,135L80,105C80,102.24 82.24,100 85,100L215,100C217.76,100 220,102.24 220,105Z" style="fill:white;stroke:rgb(33,150,243);stroke-width:1px;"/>
                <g transform="matrix(1,0,0,1,119.739,118)">
                    <text x="0px" y="0px" style="font-family:'Helvetica';font-size:11px;fill:rgb(51,51,51);">Commodore</text>
                </g>
                <g transform="matrix(1,0,0,1,116.951,132.648)">
                    <g>
                        <g>
                            <g transform="matrix(8,0,0,8,66.2695,0)">
                            </g>
                            <text x="0px" y="0px" style="font-family:'Helvetica';font-size:8px;fill:rgb(102,102,102);">Control <tspan x="27.574px 32.91px " y="0px 0px ">AP</tspan>I &amp; <tspan x="49.813px 55.148px " y="0px 0px ">Au</tspan>th</text>
                        </g>
                    </g>
                </g>
            </g>
            <g transform="matrix(1,0,0,1,-17.0581,0)">
                <g transform="matrix(1,0,0,1,-11.5556,0)">
                    <path d="M390,105L390,135C390,137.76 387.76,140 385,140L255,140C252.24,140 250,137.76 250,135L250,105C250,102.24 252.24,100 255,100L385,100C387.76,100 390,102.24 390,105Z" style="fill:white;stroke:rgb(33,150,243);stroke-width:1px;"/>
                </g>
                <g transform="matrix(1,0,0,1,272.989,118)">
                    <text x="0px" y="0px" style="font-family:'Helvetica';font-size:11px;fill:rgb(51,51,51);">Quartermaster</text>
                </g>
                <g transform="matrix(1,0,0,1,274.954,132)">
                    <g transform="matrix(8,0,0,8,67.1406,0)">
                    </g>
                    <text x="0px" y="0px" style="font-family:'Helvetica';font-size:8px;fill:rgb(102,102,102);">T<tspan x="4px 8.449px " y="0px 0px ">en</tspan>ants &amp; Clusters</text>
                </g>
            </g>
            <g transform="matrix(1,0,0,1,-21.9492,0)">
                <g transform="matrix(1,0,0,1,-25.023,0)">
                    <path d="M560,105L560,135C560,137.76 557.76,140 555,140L425,140C422.24,140 420,137.76 420,135L420,105C420,102.24 422.24,100 425,100L555,100C557.76,100 560,102.24 560,105Z" style="fill:white;stroke:rgb(33,150,243);stroke-width:1px;"/>
                </g>
                <g transform="matrix(1,0,0,1,448.778,118)">
                    <text x="0px" y="0px" style="font-family:'Helvetica';font-size:11px;fill:rgb(51,51,51);">Purser</text>
                </g>
                <g transform="matrix(1,0,0,1,454.305,132)">
                    <text x="0px" y="0px" style="font-family:'Helvetica';font-size:8px;fill:rgb(102,102,102);">Billing</text>
                </g>
            </g>
            <g transform="matrix(0.863679,0,0,1,6.81605,0)">
                <path d="M850,188L850,332C850,336.415 846.415,340 842,340L58,340C53.585,340 50,336.415 50,332L50,188C50,183.585 53.585,180 58,180L842,180C846.415,180 850,183.585 850,188Z" style="fill:rgb(255,243,224);stroke:rgb(255,152,0);stroke-width:2px;"/>
            </g>
            <g transform="matrix(0.99996,-0.00889393,0.0266419,2.9954,112.557,-524.934)">
                <path d="M430,260L430,280" style="fill:none;fill-rule:nonzero;stroke:rgb(102,102,102);stroke-width:0.81px;"/>
            </g>
            <g transform="matrix(1,0,0,1,70,205)">
                <g>
                    <text x="0px" y="0px" style="font-family:'Helvetica-Bold', 'Helvetica';font-weight:700;font-size:14px;fill:rgb(255,152,0);">Data Plane - Event-Driven</text>
                    <g transform="matrix(1,0,0,1,173.763,0)">
                        <text x="0px" y="0px" style="font-family:'Helvetica-Bold', 'Helvetica';font-weight:700;font-size:14px;fill:rgb(255,152,0);">Analytics</text>
                    </g>
                </g>
            </g>
            <g transform="matrix(0.650156,0.7598,-2.276,1.94755,821.939,-581.788)">
                <path d="M430,260L430,280" style="fill:none;fill-rule:nonzero;stroke:rgb(102,102,102);stroke-width:0.81px;"/>
            </g>
            <g>
                <path d="M600,225L600,255C600,257.76 597.76,260 595,260L505,260C502.24,260 500,257.76 500,255L500,225C500,222.24 502.24,220 505,220L595,220C597.76,220 600,222.24 600,225Z" style="fill:white;stroke:rgb(255,152,0);stroke-width:1px;"/>
                <g transform="matrix(1,0,0,1,527.766,238)">
                    <text x="0px" y="0px" style="font-family:'Helvetica';font-size:10px;fill:rgb(51,51,51);">Periscope</text>
                </g>
                <g transform="matrix(1,0,0,1,523.32,252)">
                    <text x="0px" y="0px" style="font-family:'Helvetica';font-size:8px;fill:rgb(102,102,102);">Analytics Read</text>
                </g>
            </g>
            <g>
                <path d="M720,225L720,255C720,257.76 717.76,260 715,260L625,260C622.24,260 620,257.76 620,255L620,225C620,222.24 622.24,220 625,220L715,220C717.76,220 720,222.24 720,225Z" style="fill:white;stroke:rgb(255,152,0);stroke-width:1px;"/>
                <g transform="matrix(1,0,0,1,646.375,238)">
                    <text x="0px" y="0px" style="font-family:'Helvetica';font-size:10px;fill:rgb(51,51,51);">Signalman</text>
                </g>
                <g transform="matrix(1,0,0,1,639.338,252)">
                    <g transform="matrix(8,0,0,8,60.9102,0)">
                    </g>
                    <text x="0px" y="0px" style="font-family:'Helvetica';font-size:8px;fill:rgb(102,102,102);">Real-time Events</text>
                </g>
            </g>
            <path d="M850,368L850,452C850,456.415 846.415,460 842,460L58,460C53.585,460 50,456.415 50,452L50,368C50,363.585 53.585,360 58,360L842,360C846.415,360 850,363.585 850,368Z" style="fill:rgb(232,245,232);stroke:rgb(76,175,80);stroke-width:2px;"/>
            <g transform="matrix(14.0606,7.41658,-7.52388,-2.70511,-3050.31,-1747.31)">
                <path d="M360,250L380,240" style="fill:none;fill-rule:nonzero;stroke:rgb(102,102,102);stroke-width:0.32px;"/>
            </g>
            <g transform="matrix(1,0,0,1,70,385)">
                <text x="0px" y="0px" style="font-family:'Helvetica-Bold', 'Helvetica';font-weight:700;font-size:14px;fill:rgb(76,175,80);">Media Plane</text>
            </g>
            <g transform="matrix(1,0,0,1.7992,2.84217e-14,-383.615)">
                <path d="M850,488L850,532C850,536.415 846.415,540 842,540L58,540C53.585,540 50,536.415 50,532L50,488C50,483.585 53.585,480 58,480L842,480C846.415,480 850,483.585 850,488Z" style="fill:rgb(243,229,245);stroke:rgb(156,39,176);stroke-width:2px;"/>
            </g>
            <g transform="matrix(1,0,0,1,70,505)">
                <text x="0px" y="0px" style="font-family:'Helvetica-Bold', 'Helvetica';font-weight:700;font-size:14px;fill:rgb(156,39,176);">Support &amp; Interface</text>
            </g>
            <g transform="matrix(1,0,0,1,-11.6914,-1.8468)">
                <path d="M170,518L170,532C170,533.656 168.656,535 167,535L83,535C81.344,535 80,533.656 80,532L80,518C80,516.344 81.344,515 83,515L167,515C168.656,515 170,516.344 170,518Z" style="fill:white;stroke:rgb(156,39,176);stroke-width:1px;"/>
            </g>
            <g transform="matrix(1,0,0,1,113.309,526.153)">
                <g>
                    <g transform="matrix(1,0,0,1,-26.934,0)">
                        <text x="0px" y="0px" style="font-family:'Helvetica';font-size:9px;fill:rgb(51,51,51);">W</text>
                    </g>
                    <g transform="matrix(1,0,0,1,-18.598,0)">
                        <text x="0px" y="0px" style="font-family:'Helvetica';font-size:9px;fill:rgb(51,51,51);">eb Console</text>
                    </g>
                </g>
            </g>
            <g transform="matrix(0.712742,0,0,1,40.015,-1.8468)">
                <path d="M270,518L270,532C270,533.656 268.656,535 267,535L183,535C181.344,535 180,533.656 180,532L180,518C180,516.344 181.344,515 183,515L267,515C268.656,515 270,516.344 270,518Z" style="fill:white;stroke:rgb(156,39,176);stroke-width:1px;"/>
            </g>
            <g transform="matrix(1,0,0,1,180.598,525.386)">
                <text x="0px" y="0px" style="font-family:'Helvetica';font-size:9px;fill:rgb(51,51,51);">Marketing</text>
            </g>
            <g transform="matrix(0.634253,0,0,1,66.632,-1.8468)">
                <path d="M370,518L370,532C370,533.656 368.656,535 367,535L283,535C281.344,535 280,533.656 280,532L280,518C280,516.344 281.344,515 283,515L367,515C368.656,515 370,516.344 370,518Z" style="fill:white;stroke:rgb(156,39,176);stroke-width:1px;"/>
            </g>
            <g transform="matrix(1,0,0,1,260.985,526.016)">
                <text x="0px" y="0px" style="font-family:'Helvetica';font-size:9px;fill:rgb(51,51,51);">Nginx</text>
            </g>
            <g transform="matrix(0.785904,0,0,1,14.2677,-1.8468)">
                <path d="M470,518L470,532C470,533.656 468.656,535 467,535L383,535C381.344,535 380,533.656 380,532L380,518C380,516.344 381.344,515 383,515L467,515C468.656,515 470,516.344 470,518Z" style="fill:white;stroke:rgb(156,39,176);stroke-width:1px;"/>
            </g>
            <g transform="matrix(1,0,0,1,324.818,526.037)">
                <text x="0px" y="0px" style="font-family:'Helvetica';font-size:9px;fill:rgb(51,51,51);">Prometheus</text>
            </g>
            <g transform="matrix(0.643173,0,0,1,83.394,-2.1112)">
                <path d="M570,518L570,532C570,533.656 568.656,535 567,535L483,535C481.344,535 480,533.656 480,532L480,518C480,516.344 481.344,515 483,515L567,515C568.656,515 570,516.344 570,518Z" style="fill:white;stroke:rgb(156,39,176);stroke-width:1px;"/>
            </g>
            <g transform="matrix(1,0,0,1,404.791,525.782)">
                <text x="0px" y="0px" style="font-family:'Helvetica';font-size:9px;fill:rgb(51,51,51);">Grafana</text>
            </g>
            <g transform="matrix(0.366633,0,0,1,-8.4197,27.8593)">
                <path d="M570,518L570,532C570,533.656 568.656,535 567,535L483,535C481.344,535 480,533.656 480,532L480,518C480,516.344 481.344,515 483,515L567,515C568.656,515 570,516.344 570,518Z" style="fill:white;stroke:rgb(156,39,176);stroke-width:1px;"/>
            </g>
            <g transform="matrix(4.23959,-0.444195,2.119,0.895936,-1108.42,104.919)">
                <path d="M180,240L200,250" style="fill:none;fill-rule:nonzero;stroke:rgb(102,102,102);stroke-width:0.4px;"/>
            </g>
            <g transform="matrix(6.83142,0.355529,-3.4007,0.940169,-1353.55,-122.688)">
                <path d="M360,250L380,240" style="fill:none;fill-rule:nonzero;stroke:rgb(102,102,102);stroke-width:0.69px;"/>
            </g>
            <g transform="matrix(1.72929,0.418816,-0.846246,0.908474,-19.8387,40.9104)">
                <path d="M360,250L380,240" style="fill:none;fill-rule:nonzero;stroke:rgb(102,102,102);stroke-width:1.6px;"/>
            </g>
            <g transform="matrix(1.72929,0.418816,-0.846246,0.908474,-193.401,42.1669)">
                <path d="M360,250L380,240" style="fill:none;fill-rule:nonzero;stroke:rgb(102,102,102);stroke-width:1.6px;"/>
            </g>
            <g transform="matrix(0.99996,-0.00889393,0.0266419,2.9954,-6.9099,-534.828)">
                <path d="M430,260L430,280" style="fill:none;fill-rule:nonzero;stroke:rgb(102,102,102);stroke-width:0.81px;"/>
            </g>
            <g transform="matrix(0.473681,0,0,1,-112.085,27.5949)">
                <path d="M570,518L570,532C570,533.656 568.656,535 567,535L483,535C481.344,535 480,533.656 480,532L480,518C480,516.344 481.344,515 483,515L567,515C568.656,515 570,516.344 570,518Z" style="fill:white;stroke:rgb(156,39,176);stroke-width:1px;"/>
            </g>
            <g transform="matrix(1,0,0,1,123.441,555.122)">
                <text x="0px" y="0px" style="font-family:'Helvetica';font-size:9px;fill:rgb(51,51,51);">Player</text>
            </g>
            <g transform="matrix(0.429078,0,0,1,-138.014,27.4879)">
                <path d="M570,518L570,532C570,533.656 568.656,535 567,535L483,535C481.344,535 480,533.656 480,532L480,518C480,516.344 481.344,515 483,515L567,515C568.656,515 570,516.344 570,518Z" style="fill:white;stroke:rgb(156,39,176);stroke-width:1px;"/>
            </g>
            <g transform="matrix(1,0,0,1,176.659,555.827)">
                <text x="0px" y="0px" style="font-family:'Helvetica';font-size:9px;fill:rgb(51,51,51);">CLI</text>
            </g>
            <g transform="matrix(1,0,0,1,76.9056,555.733)">
                <g transform="matrix(9,0,0,9,20.5049,0)">
                </g>
                <text x="0px" y="0px" style="font-family:'Helvetica';font-size:9px;fill:rgb(51,51,51);">Docs</text>
            </g>
            <g transform="matrix(1,0,0,1,10.5996,30.0492)">
                <g transform="matrix(0.554801,0,0,1.75131,432.666,16.6679)">
                    <path d="M730,105L730,135C730,137.76 727.76,140 725,140L595,140C592.24,140 590,137.76 590,135L590,105C590,102.24 592.24,100 595,100L725,100C727.76,100 730,102.24 730,105Z" style="fill:white;stroke:rgb(33,150,243);stroke-width:1px;"/>
                </g>
                <g transform="matrix(1,0,0,1,782.65,220.575)">
                    <text x="0px" y="0px" style="font-family:'Helvetica';font-size:11px;fill:rgb(51,51,51);">Bridge</text>
                </g>
                <g transform="matrix(1,0,0,1,782.46,234.605)">
                    <g>
                        <text x="0px" y="0px" style="font-family:'Helvetica';font-size:8px;fill:rgb(102,102,102);">GraphQL</text>
                        <g transform="matrix(1,0,0,1,0,8)">
                            <text x="0px" y="0px" style="font-family:'Helvetica';font-size:8px;fill:rgb(102,102,102);">Gateway</text>
                        </g>
                    </g>
                </g>
            </g>
            <g transform="matrix(7.23754,7.33202,-4.3796,-2.84678,-1385.38,-1682.32)">
                <path d="M360,250L380,240" style="fill:none;fill-rule:nonzero;stroke:rgb(102,102,102);stroke-width:0.48px;"/>
            </g>
            <g>
                <path d="M390,405L390,435C390,437.76 387.76,440 385,440L255,440C252.24,440 250,437.76 250,435L250,405C250,402.24 252.24,400 255,400L385,400C387.76,400 390,402.24 390,405Z" style="fill:white;stroke:rgb(76,175,80);stroke-width:1px;"/>
                <g transform="matrix(1,0,0,1,293.717,418)">
                    <text x="0px" y="0px" style="font-family:'Helvetica';font-size:11px;fill:rgb(51,51,51);">Helmsman</text>
                </g>
                <g transform="matrix(1,0,0,1,295.984,432)">
                    <text x="0px" y="0px" style="font-family:'Helvetica';font-size:8px;fill:rgb(102,102,102);">Edge Sidecar</text>
                </g>
            </g>
            <g>
                <path d="M180,225L180,255C180,257.76 177.76,260 175,260L85,260C82.24,260 80,257.76 80,255L80,225C80,222.24 82.24,220 85,220L175,220C177.76,220 180,222.24 180,225Z" style="fill:white;stroke:rgb(255,152,0);stroke-width:1px;"/>
                <g transform="matrix(1,0,0,1,111.936,238)">
                    <text x="0px" y="0px" style="font-family:'Helvetica';font-size:10px;fill:rgb(51,51,51);">Decklog</text>
                </g>
                <g transform="matrix(1,0,0,1,102.93,252.799)">
                    <g transform="matrix(8,0,0,8,53.8047,0)">
                    </g>
                    <text x="0px" y="0px" style="font-family:'Helvetica';font-size:8px;fill:rgb(102,102,102);">Event Firehose</text>
                </g>
            </g>
            <g>
                <path d="M220,405L220,435C220,437.76 217.76,440 215,440L85,440C82.24,440 80,437.76 80,435L80,405C80,402.24 82.24,400 85,400L215,400C217.76,400 220,402.24 220,405Z" style="fill:white;stroke:rgb(76,175,80);stroke-width:1px;"/>
                <g transform="matrix(1,0,0,1,123.719,418)">
                    <text x="0px" y="0px" style="font-family:'Helvetica';font-size:11px;fill:rgb(51,51,51);">MistServer</text>
                </g>
                <g transform="matrix(1,0,0,1,118.207,432)">
                    <text x="0px" y="0px" style="font-family:'Helvetica';font-size:8px;fill:rgb(102,102,102);">Media Processing</text>
                </g>
                <g transform="matrix(0.764592,0,0,1,556.577,90)">
                    <path d="M220,405L220,435C220,437.76 217.76,440 215,440L85,440C82.24,440 80,437.76 80,435L80,405C80,402.24 82.24,400 85,400L215,400C217.76,400 220,402.24 220,405Z" style="fill:white;stroke:rgb(76,175,80);stroke-width:1px;"/>
                </g>
                <g transform="matrix(1,0,0,1,646.416,509.796)">
                    <g transform="matrix(11,0,0,11,49.5322,0)">
                    </g>
                    <text x="0px" y="0px" style="font-family:'Helvetica';font-size:11px;fill:rgb(51,51,51);">Deckhand</text>
                </g>
                <g transform="matrix(1,0,0,1,636.654,521.339)">
                    <g transform="matrix(8,0,0,8,69.3789,0)">
                    </g>
                    <text x="0px" y="0px" style="font-family:'Helvetica';font-size:8px;fill:rgb(102,102,102);">Support &amp; <tspan x="37.66px 42.254px 44.031px " y="0px 0px 0px ">Tic</tspan>keting</text>
                </g>
                <g transform="matrix(0.764592,0,0,1,669.697,90)">
                    <path d="M220,405L220,435C220,437.76 217.76,440 215,440L85,440C82.24,440 80,437.76 80,435L80,405C80,402.24 82.24,400 85,400L215,400C217.76,400 220,402.24 220,405Z" style="fill:white;stroke:rgb(76,175,80);stroke-width:1px;"/>
                </g>
                <g transform="matrix(1,0,0,1,769.31,509.791)">
                    <g transform="matrix(11,0,0,11,29.3423,0)">
                    </g>
                    <text x="0px" y="0px" style="font-family:'Helvetica';font-size:11px;fill:rgb(51,51,51);">Parlor</text>
                </g>
                <g transform="matrix(1,0,0,1,750.007,522)">
                    <g transform="matrix(8,0,0,8,68.4648,0)">
                    </g>
                    <text x="0px" y="0px" style="font-family:'Helvetica';font-size:8px;fill:rgb(102,102,102);">Stream Interactivity</text>
                </g>
            </g>
            <g transform="matrix(2.37341,0.408216,-1.16831,0.913774,5.79506,45.1576)">
                <path d="M360,250L380,240" style="fill:none;fill-rule:nonzero;stroke:rgb(102,102,102);stroke-width:1.42px;"/>
            </g>
            <g transform="matrix(1,0,0,1,-118.062,299.986)">
                <g>
                    <g transform="matrix(1,0,0,1,-38.1797,0)">
                        <path d="M730,105L730,135C730,137.76 727.76,140 725,140L595,140C592.24,140 590,137.76 590,135L590,105C590,102.24 592.24,100 595,100L725,100C727.76,100 730,102.24 730,105Z" style="fill:white;stroke:rgb(33,150,243);stroke-width:1px;"/>
                    </g>
                    <g transform="matrix(1,0,0,1,601.335,118)">
                        <text x="0px" y="0px" style="font-family:'Helvetica';font-size:11px;fill:rgb(51,51,51);">Foghorn</text>
                    </g>
                    <g transform="matrix(1,0,0,1,553.303,130.704)">
                        <g transform="matrix(8,0,0,8,136.52,0)">
                        </g>
                        <text x="0px" y="0px" style="font-family:'Helvetica';font-size:8px;fill:rgb(102,102,102);">Load Balancer &amp; Pipeline Orchestrator</text>
                    </g>
                </g>
            </g>
            <g transform="matrix(1,0,0,1,187.736,0)">
                <g transform="matrix(1,0,0,1,351.803,0)">
                    <path d="M220,405L220,435C220,437.76 217.76,440 215,440L85,440C82.24,440 80,437.76 80,435L80,405C80,402.24 82.24,400 85,400L215,400C217.76,400 220,402.24 220,405Z" style="fill:white;stroke:rgb(76,175,80);stroke-width:1px;"/>
                </g>
                <g transform="matrix(1,0,0,1,478.532,418)">
                    <text x="0px" y="0px" style="font-family:'Helvetica';font-size:11px;fill:rgb(51,51,51);">Livepeer</text>
                </g>
                <g transform="matrix(1,0,0,1,461.119,432)">
                    <text x="0px" y="0px" style="font-family:'Helvetica';font-size:8px;fill:rgb(102,102,102);">Compute Marketplace</text>
                </g>
            </g>
            <g>
                <path d="M360,228L360,272C360,276.415 356.415,280 352,280L208,280C203.585,280 200,276.415 200,272L200,228C200,223.585 203.585,220 208,220L352,220C356.415,220 360,223.585 360,228Z" style="fill:rgb(76,175,80);stroke:rgb(46,125,50);stroke-width:2px;"/>
                <g transform="matrix(1,0,0,1,262.296,245)">
                    <text x="0px" y="0px" style="font-family:'Helvetica-Bold', 'Helvetica';font-weight:700;font-size:13px;fill:white;">Kafka</text>
                </g>
                <g transform="matrix(1,0,0,1,243.586,260)">
                    <text x="0px" y="0px" style="font-family:'Helvetica';font-size:10px;fill:white;">Event Backbone</text>
                </g>
            </g>
            <g>
                <path d="M480,225L480,255C480,257.76 477.76,260 475,260L385,260C382.24,260 380,257.76 380,255L380,225C380,222.24 382.24,220 385,220L475,220C477.76,220 480,222.24 480,225Z" style="fill:white;stroke:rgb(255,152,0);stroke-width:1px;"/>
                <g transform="matrix(1,0,0,1,407.766,238)">
                    <text x="0px" y="0px" style="font-family:'Helvetica';font-size:10px;fill:rgb(51,51,51);">Periscope</text>
                </g>
                <g transform="matrix(1,0,0,1,430,252)">
                    <g>
                        <g transform="matrix(1,0,0,1,-26.379,0)">
                            <text x="0px" y="0px" style="font-family:'Helvetica';font-size:8px;fill:rgb(102,102,102);">Analytics W</text>
                        </g>
                        <g transform="matrix(1,0,0,1,15.266,0)">
                            <text x="0px" y="0px" style="font-family:'Helvetica';font-size:8px;fill:rgb(102,102,102);">rite</text>
                        </g>
                    </g>
                </g>
            </g>
            <g>
                <path d="M480,285L480,315C480,317.76 477.76,320 475,320L385,320C382.24,320 380,317.76 380,315L380,285C380,282.24 382.24,280 385,280L475,280C477.76,280 480,282.24 480,285Z" style="fill:white;stroke:rgb(255,152,0);stroke-width:1px;"/>
                <g transform="matrix(1,0,0,1,404.714,298)">
                    <text x="0px" y="0px" style="font-family:'Helvetica';font-size:10px;fill:rgb(51,51,51);">ClickHouse</text>
                </g>
                <g transform="matrix(1,0,0,1,430,312)">
                    <g>
                        <g transform="matrix(1,0,0,1,-20.744,0)">
                            <text x="0px" y="0px" style="font-family:'Helvetica';font-size:8px;fill:rgb(102,102,102);">T</text>
                        </g>
                        <g transform="matrix(1,0,0,1,-16.15,0)">
                            <text x="0px" y="0px" style="font-family:'Helvetica';font-size:8px;fill:rgb(102,102,102);">ime-series</text>
                        </g>
                    </g>
                </g>
            </g>
            <g>
                <path d="M600,285L600,315C600,317.76 597.76,320 595,320L505,320C502.24,320 500,317.76 500,315L500,285C500,282.24 502.24,280 505,280L595,280C597.76,280 600,282.24 600,285Z" style="fill:white;stroke:rgb(255,152,0);stroke-width:1px;"/>
                <g transform="matrix(1,0,0,1,523.447,294.107)">
                    <text x="0px" y="0px" style="font-family:'Helvetica';font-size:10px;fill:rgb(51,51,51);">PostgreSQL</text>
                </g>
                <g transform="matrix(1,0,0,1,525.303,311.24)">
                    <g>
                        <g transform="matrix(8,0,0,8,47.5703,0)">
                        </g>
                        <text x="0px" y="0px" style="font-family:'Helvetica';font-size:8px;fill:rgb(102,102,102);">Billing Cursor</text>
                    </g>
                </g>
            </g>
        </g>
        <g transform="matrix(4.24774,0,0,5.55556,2461.43,490.764)">
            <path d="M220,405L220,435C220,437.76 217.76,440 215,440L85,440C82.24,440 80,437.76 80,435L80,405C80,402.24 82.24,400 85,400L215,400C217.76,400 220,402.24 220,405Z" style="fill:white;stroke:rgb(76,175,80);stroke-width:1px;"/>
        </g>
        <g transform="matrix(5.55556,0,0,5.55556,2974.07,2822.96)">
            <g transform="matrix(11,0,0,11,44.0161,0)">
            </g>
            <text x="0px" y="0px" style="font-family:'Helvetica';font-size:11px;fill:rgb(51,51,51);">Privateer</text>
        </g>
        <g transform="matrix(5.55556,0,0,5.55556,2875.95,2894.29)">
            <g transform="matrix(8,0,0,8,80.0391,0)">
            </g>
            <text x="0px" y="0px" style="font-family:'Helvetica';font-size:8px;fill:rgb(102,102,102);">VPN agent &amp; Resolver</text>
        </g>
        <g transform="matrix(4.24774,0,0,5.55556,2461.43,746.286)">
            <path d="M220,405L220,435C220,437.76 217.76,440 215,440L85,440C82.24,440 80,437.76 80,435L80,405C80,402.24 82.24,400 85,400L215,400C217.76,400 220,402.24 220,405Z" style="fill:white;stroke:rgb(76,175,80);stroke-width:1px;"/>
        </g>
        <g transform="matrix(5.55556,0,0,5.55556,2974.07,3078.49)">
            <g transform="matrix(11,0,0,11,39.1445,0)">
            </g>
            <text x="0px" y="0px" style="font-family:'Helvetica';font-size:11px;fill:rgb(51,51,51);">Lookout</text>
        </g>
        <g transform="matrix(5.55556,0,0,5.55556,2869.04,3146.22)">
            <g transform="matrix(8,0,0,8,76.9375,0)">
            </g>
            <text x="0px" y="0px" style="font-family:'Helvetica';font-size:8px;fill:rgb(102,102,102);">Incident management</text>
        </g>
        <g transform="matrix(4.24774,0,0,5.55556,3091.43,746.286)">
            <path d="M220,405L220,435C220,437.76 217.76,440 215,440L85,440C82.24,440 80,437.76 80,435L80,405C80,402.24 82.24,400 85,400L215,400C217.76,400 220,402.24 220,405Z" style="fill:white;stroke:rgb(76,175,80);stroke-width:1px;"/>
        </g>
        <g transform="matrix(5.55556,0,0,5.55556,3604.07,3078.49)">
            <g transform="matrix(11,0,0,11,47.0776,0)">
            </g>
            <text x="0px" y="0px" style="font-family:'Helvetica';font-size:11px;fill:rgb(51,51,51);">Navigator</text>
        </g>
        <g transform="matrix(5.55556,0,0,5.55556,3550.59,3153.42)">
            <g transform="matrix(8,0,0,8,43.5625,0)">
            </g>
            <g transform="matrix(8,0,0,8,45.7852,0)">
            </g>
            <g transform="matrix(8,0,0,8,66.6836,0)">
            </g>
            <text x="0px" y="0px" style="font-family:'Helvetica';font-size:8px;fill:rgb(102,102,102);">DNS &amp; Certiﬁcates</text>
        </g>
    </g>
</svg>
