<?xml version="1.0" encoding="UTF-8" standalone="no"?>
<!DOCTYPE svg PUBLIC "-//W3C//DTD SVG 1.1//EN" "http://www.w3.org/Graphics/SVG/1.1/DTD/svg11.dtd">
<svg width="100%" height="100%" viewBox="0 0 9034 1934" version="1.1" xmlns="http://www.w3.org/2000/svg" xmlns:xlink="http://www.w3.org/1999/xlink" xml:space="preserve" xmlns:serif="http://www.serif.com/" style="fill-rule:evenodd;clip-rule:evenodd;stroke-linejoin:round;stroke-miterlimit:2;">
    <g transform="matrix(5.55556,0,0,5.55556,0,0)">
        <g transform="matrix(1,0,0,1,-191.038,-356.545)">
            <path d="M364.58,407.58C299.29,407.58 246.37,460.51 246.37,525.79C246.37,574.02 275.25,615.5 316.66,633.88C318.97,632.9 321.62,632.67 324.4,633.57C324.51,633.55 324.86,633.65 325.6,634C326.67,633.66 327.88,633.53 328.97,633.29C331.43,632.75 333.92,632.4 336.38,631.88C341.95,630.71 347.39,628.96 352.96,627.8C359.12,626.52 365.49,629.53 367.24,635.91C367.96,638.53 367.61,641.45 366.45,643.98C430.87,642.98 482.79,590.45 482.79,525.79C482.79,461.13 429.86,407.58 364.58,407.58Z" style="fill:rgb(233,231,235);fill-rule:nonzero;"/>
            <path d="M365.46,408.74C300.66,408.74 248.13,461.27 248.13,526.07C248.13,573.04 275.74,613.56 315.61,632.3C319.81,630.89 324.2,630.11 328.51,630.11C330.33,630.11 332.1,630.24 333.84,630.47C337.67,628 341.94,626.14 346.36,624.98C347.75,622.5 350.07,620.56 353.31,619.87C352.95,613.81 356.67,607.47 364.48,607.47C372.29,607.47 376.1,613.98 375.63,620.1C377.58,620.93 379.09,622.27 380.17,623.9C386.51,624.58 392.32,626.69 397.35,629.91C398.66,629.77 399.96,629.7 401.26,629.7C406.29,629.7 411.04,630.6 415.4,632.24C455.23,613.48 482.81,573.01 482.81,526.06C482.81,461.26 430.28,408.73 365.48,408.73L365.46,408.74Z" style="fill:rgb(233,231,235);fill-rule:nonzero;"/>
            <path d="M375.69,475.27L376.69,496.96L387.1,500.62L372.34,500.62L371.24,470.55L392.02,470.55L375.69,475.27Z" style="fill:rgb(52,59,88);fill-rule:nonzero;"/>
            <path d="M384.34,623.5L384.34,623.44L382.65,558.88L382.73,551.82L397.63,546.37L376.13,547.07L379.77,621.29C381.31,621.96 382.84,622.69 384.35,623.49L384.34,623.5Z" style="fill:rgb(52,59,88);fill-rule:nonzero;"/>
            <g>
                <path d="M292.56,426.92L292.56,436.25C292.56,436.25 319.9,435.16 319.9,458.38L319.9,482.18L342.98,467.26L444.08,467.26C449.95,467.26 455.79,468.33 461.22,470.56C466.21,472.61 470.96,475.67 470.96,479.88L470.96,433.47L383.05,433.47L383.05,426.98L292.56,426.92Z" style="fill:rgb(15,75,110);fill-rule:nonzero;"/>
                <path d="M361.33,540.6C359.81,540.91 351.31,545.88 349.22,547.06C337.87,553.46 327.47,561.36 317.37,569.54L320.36,502.37C334.1,490.83 349.7,480.78 366.5,474.53L368.15,502.92L357.22,506.75L441.86,506.75L441.86,540.61L361.32,540.61L361.33,540.6Z" style="fill:rgb(15,75,110);fill-rule:nonzero;"/>
                <path d="M361.43,611.22C363.11,609.54 365.59,608.51 367.96,608.51C369.13,608.51 370.23,608.73 371.24,609.12L368.34,552.31C353.25,559.61 338.43,567.85 325.26,578.3C323.34,579.82 316.25,585.37 315.34,586.95C314.97,587.6 314.89,587.84 314.8,588.59C312.96,602.36 318.49,617.31 304.29,626.13C302.21,627.42 299.09,628.25 297.22,629.43C296.53,629.86 296.07,629.94 296.27,630.94L334.49,631.84L334.49,612.1C334.49,611.89 335.6,609.53 335.88,609.12C338.81,604.83 345.45,604.12 349.26,607.7C349.99,608.39 351.96,611.91 351.96,612.64L351.96,617.75C353.13,617.08 354.37,616.53 355.68,616.11C356.84,615.5 358.04,615.01 359.26,614.65C359.75,613.34 360.52,612.11 361.43,611.21L361.43,611.22Z" style="fill:rgb(15,75,110);fill-rule:nonzero;"/>
            </g>
            <rect x="313.4" y="419.89" width="55.13" height="8.66" style="fill:rgb(15,75,110);"/>
            <path d="M347.24,396.48L358.09,396.48L358.09,419.89L323.83,419.89C323.83,406.97 334.32,396.48 347.24,396.48Z" style="fill:rgb(15,75,110);fill-rule:nonzero;"/>
            <path d="M351.96,612.66L351.96,637.47L376.12,634.39L370.63,597.19" style="fill:rgb(15,75,110);fill-rule:nonzero;"/>
            <g>
                <path d="M411.76,632.84C404.26,627.86 397.35,622.05 390.94,615.75C355.67,641.17 308.49,651.58 266.73,636.31C253.51,647.45 237.01,654.1 220.02,657.2C222.09,659.49 223.98,661.92 225.81,664.43C235.92,664.82 246.22,664.86 256.28,664.01C293.41,660.84 328.59,642.95 366.19,644.33C397.12,645.47 425.27,662.02 456.07,664.31C470.55,665.38 487.59,662.11 501.09,656.79C501.41,656.67 501.98,656.7 501.91,656.27C470.36,658.19 438.03,650.29 411.75,632.85L411.76,632.84Z" style="fill:rgb(15,75,110);fill-rule:nonzero;"/>
                <path d="M408.45,672.35C408.52,672.89 407.8,672.62 407.48,672.57C405.51,672.26 403.3,671.43 401.29,670.99C377.62,665.79 352.16,663.76 328.01,666.72C317.92,667.96 308.09,670.69 298.05,672.29C277.26,675.6 255.43,676.81 234.64,673.08C250.66,673.21 266.47,671.23 282.02,667.61C296.8,664.16 311.76,658.45 326.82,656.59C354.36,653.18 383.1,662.77 408.45,672.35Z" style="fill:rgb(15,75,110);fill-rule:nonzero;"/>
                <path d="M353.12,627.48L344.48,631.01C318.86,639.27 290.94,637.91 265.57,629.44C256.91,635.53 247.95,641.71 237.63,644.63L243.87,640.29C253,633.29 261.89,625.72 268.28,616.05C271.6,617.5 274.73,619.38 278.04,620.85C300.57,630.89 328.93,633.38 353.12,627.48Z" style="fill:rgb(15,75,110);fill-rule:nonzero;"/>
                <path d="M473.26,670.86L470.44,672.06C431.93,687.16 399.14,657.08 361.94,652.77L351.43,651.2C373.87,649.4 395.85,654.69 417.06,661.25C422.68,662.99 428.22,665.2 433.85,666.84C446.49,670.53 460.15,672.26 473.27,670.87L473.26,670.86Z" style="fill:rgb(15,75,110);fill-rule:nonzero;"/>
                <path d="M479.53,649.11L476.7,649.4C457.23,646.94 438.39,640.63 421.4,630.98C419.67,630 417.77,628.9 416.23,627.65C424.71,630.01 433.58,626.99 441.14,623.19C449.02,637.2 464.17,645.69 479.54,649.1L479.53,649.11Z" style="fill:rgb(15,75,110);fill-rule:nonzero;"/>
                <path d="M416.81,681.89C416.88,682.43 416.16,682.16 415.84,682.11C412.5,681.58 409.16,680.71 405.83,680.18C374.97,675.28 343.58,675.09 312.45,677.13C312.13,677.15 311.04,677.34 311.1,676.82C345.87,667.86 382.85,671.48 416.81,681.89Z" style="fill:rgb(15,75,110);fill-rule:nonzero;"/>
            </g>
            <g>
                <path d="M664.91,407.84L743.45,407.84L743.45,427.77L686.16,427.77L688.15,425.78L688.15,517.94L664.9,517.94L664.9,407.85L664.91,407.84ZM731.49,452.51L731.49,472.27L685.66,472.27L685.66,452.51L731.49,452.51Z" style="fill:rgb(15,75,110);fill-rule:nonzero;"/>
                <path d="M758.89,407.84L811.36,407.84C816.89,407.84 822.01,408.75 826.72,410.58C831.42,412.41 835.52,414.95 839.01,418.22C842.5,421.49 845.21,425.36 847.15,429.84C849.09,434.32 850.06,439.22 850.06,444.54C850.06,449.86 849.09,454.75 847.15,459.24C845.21,463.72 842.53,467.57 839.1,470.78C835.67,473.99 831.57,476.54 826.81,478.42C822.05,480.3 816.9,481.24 811.37,481.24L779.65,481.24L779.65,461.65L808.21,461.65C810.87,461.65 813.3,461.23 815.52,460.4C817.73,459.57 819.64,458.38 821.25,456.83C822.85,455.28 824.1,453.45 824.99,451.35C825.87,449.25 826.32,446.98 826.32,444.54C826.32,442.1 825.82,439.7 824.83,437.65C823.83,435.6 822.53,433.83 820.93,432.34C819.32,430.85 817.41,429.71 815.2,428.94C812.98,428.17 810.66,427.78 808.23,427.78L780.17,427.78L782.16,425.79L782.16,517.95L758.91,517.95L758.91,407.86L758.89,407.84ZM801.73,478.91L824.98,474.43L850.88,517.93L824.31,517.93L801.73,478.91Z" style="fill:rgb(15,75,110);fill-rule:nonzero;"/>
                <path d="M901.03,407.84L927.6,407.84L972.1,517.93L947.36,517.93L938.06,494.35L940.72,496.18L887.75,496.18L890.41,494.35L881.28,517.93L856.54,517.93L901.04,407.84L901.03,407.84ZM893.89,477.75L934.74,477.75L933.58,479.58L913.49,429.77L914.98,429.77L895.05,479.58L893.89,477.75Z" style="fill:rgb(15,75,110);fill-rule:nonzero;"/>
                <path d="M984.03,407.84L1003.64,407.84L1044.65,457.82L1041.99,457.82L1083,407.84L1102.59,407.84L1102.59,517.93L1079.67,517.93L1079.67,442.54L1081,443.04L1044.97,485.55L1041.48,485.55L1005.45,443.04L1006.78,442.54L1006.78,517.93L984.03,517.93L984.03,407.84Z" style="fill:rgb(15,75,110);fill-rule:nonzero;"/>
                <path d="M1205.39,498.01L1205.39,517.94L1127.51,517.94L1127.51,407.85L1203.89,407.85L1203.89,427.78L1148.6,427.78L1150.59,425.79L1150.59,500.01L1148.6,498.02L1205.39,498.02L1205.39,498.01ZM1198.25,452.01L1198.25,471.27L1148.1,471.27L1148.1,452.01L1198.25,452.01Z" style="fill:rgb(15,75,110);fill-rule:nonzero;"/>
                <path d="M1212.53,407.84L1236.28,407.84L1259.53,494.19L1258.53,494.19L1281.61,409.5L1304.19,409.5L1327.27,494.19L1326.27,494.19L1349.35,407.84L1373.1,407.84L1342.22,517.93L1312.66,517.93L1292.4,446.2L1293.4,446.2L1272.98,517.93L1243.59,517.93L1212.54,407.84L1212.53,407.84Z" style="fill:rgb(15,75,110);fill-rule:nonzero;"/>
                <path d="M1414.86,515.45C1407.72,512.68 1401.52,508.81 1396.26,503.83C1391,498.85 1386.9,492.9 1383.97,485.98C1381.04,479.06 1379.57,471.45 1379.57,463.15C1379.57,454.85 1381.04,447.21 1383.97,440.23C1386.9,433.26 1391,427.25 1396.26,422.21C1401.52,417.17 1407.72,413.24 1414.86,410.42C1422,407.6 1429.78,406.19 1438.19,406.19C1446.6,406.19 1454.57,407.6 1461.77,410.42C1468.96,413.24 1475.16,417.17 1480.37,422.21C1485.57,427.25 1489.64,433.25 1492.57,440.23C1495.5,447.2 1496.97,454.84 1496.97,463.15C1496.97,471.46 1495.5,479.23 1492.57,486.15C1489.64,493.07 1485.57,498.99 1480.37,503.92C1475.16,508.85 1468.97,512.69 1461.77,515.46C1454.57,518.23 1446.71,519.61 1438.19,519.61C1429.67,519.61 1422,518.22 1414.86,515.46L1414.86,515.45ZM1451.97,495.69C1456.18,494.03 1459.83,491.71 1462.93,488.72C1466.03,485.73 1468.46,482.05 1470.24,477.68C1472.01,473.31 1472.9,468.46 1472.9,463.15C1472.9,457.84 1472.01,452.85 1470.24,448.54C1468.47,444.22 1466.03,440.52 1462.93,437.41C1459.83,434.31 1456.18,431.93 1451.97,430.27C1447.76,428.61 1443.17,427.78 1438.19,427.78C1433.21,427.78 1428.94,428.61 1424.74,430.27C1420.53,431.93 1416.88,434.31 1413.78,437.41C1410.68,440.51 1408.24,444.22 1406.47,448.54C1404.7,452.86 1403.81,457.73 1403.81,463.15C1403.81,468.57 1404.69,473.31 1406.47,477.68C1408.24,482.05 1410.68,485.73 1413.78,488.72C1416.88,491.71 1420.53,494.03 1424.74,495.69C1428.95,497.35 1433.43,498.18 1438.19,498.18C1442.95,498.18 1447.76,497.35 1451.97,495.69Z" style="fill:rgb(15,75,110);fill-rule:nonzero;"/>
                <path d="M1514.91,407.84L1567.38,407.84C1572.91,407.84 1578.03,408.75 1582.74,410.58C1587.44,412.41 1591.54,414.95 1595.03,418.22C1598.52,421.49 1601.23,425.36 1603.17,429.84C1605.11,434.32 1606.08,439.22 1606.08,444.54C1606.08,449.86 1605.11,454.75 1603.17,459.24C1601.23,463.72 1598.55,467.57 1595.12,470.78C1591.69,473.99 1587.59,476.54 1582.83,478.42C1578.07,480.3 1572.92,481.24 1567.39,481.24L1535.67,481.24L1535.67,461.65L1564.23,461.65C1566.89,461.65 1569.32,461.23 1571.54,460.4C1573.75,459.57 1575.66,458.38 1577.27,456.83C1578.87,455.28 1580.12,453.45 1581.01,451.35C1581.89,449.25 1582.34,446.98 1582.34,444.54C1582.34,442.1 1581.84,439.7 1580.85,437.65C1579.85,435.6 1578.55,433.83 1576.95,432.34C1575.34,430.85 1573.43,429.71 1571.22,428.94C1569,428.17 1566.68,427.78 1564.25,427.78L1536.19,427.78L1538.18,425.79L1538.18,517.95L1514.93,517.95L1514.93,407.86L1514.91,407.84ZM1557.75,478.91L1581,474.43L1606.9,517.93L1580.33,517.93L1557.75,478.91Z" style="fill:rgb(15,75,110);fill-rule:nonzero;"/>
                <path d="M1625,407.84L1648.08,407.84L1648.08,517.93L1625,517.93L1625,407.84ZM1665.51,473.93L1645.58,473.93L1645.58,454.34L1667.5,454.34L1693.74,407.85L1718.81,407.85L1684.77,466.3L1684.6,462.98L1721.3,517.94L1693.9,517.94L1665.51,473.94L1665.51,473.93Z" style="fill:rgb(15,75,110);fill-rule:nonzero;"/>
                <path d="M1751.69,483.73C1751.91,486.28 1752.57,488.55 1753.68,490.54C1754.78,492.53 1756.25,494.19 1758.08,495.52C1759.91,496.85 1761.98,497.87 1764.31,498.59C1766.63,499.31 1769.18,499.67 1771.95,499.67C1774.38,499.67 1776.71,499.4 1778.92,498.84C1781.13,498.29 1783.07,497.43 1784.73,496.27C1786.39,495.11 1787.74,493.67 1788.8,491.95C1789.85,490.23 1790.38,488.27 1790.38,486.05C1790.38,483.39 1789.6,481.21 1788.06,479.49C1786.51,477.78 1784.54,476.36 1782.17,475.26C1779.79,474.16 1777.24,473.24 1774.53,472.52C1771.82,471.8 1769.19,471.17 1766.64,470.61C1762.32,469.61 1757.92,468.43 1753.44,467.04C1748.96,465.66 1744.91,463.83 1741.32,461.56C1737.72,459.29 1734.76,456.28 1732.44,452.51C1730.12,448.75 1728.95,443.99 1728.95,438.23C1728.95,433.14 1729.92,428.63 1731.86,424.7C1733.8,420.77 1736.54,417.42 1740.08,414.65C1743.62,411.88 1747.94,409.78 1753.03,408.34C1758.12,406.9 1763.88,406.18 1770.3,406.18C1776.72,406.18 1782.09,406.96 1787.07,408.5C1792.05,410.05 1796.29,412.29 1799.77,415.23C1803.26,418.16 1805.97,421.68 1807.91,425.77C1809.85,429.87 1810.92,434.46 1811.15,439.55L1786.74,439.55C1786.63,437.34 1786.1,435.4 1785.16,433.74C1784.22,432.08 1782.97,430.64 1781.42,429.42C1779.87,428.2 1778.07,427.29 1776.02,426.68C1773.97,426.07 1771.79,425.77 1769.46,425.77C1767.13,425.77 1765.11,426.02 1763.07,426.52C1761.02,427.02 1759.22,427.77 1757.67,428.76C1756.12,429.76 1754.87,431 1753.93,432.5C1752.99,433.99 1752.52,435.79 1752.52,437.9C1752.52,440.34 1753.29,442.33 1754.85,443.88C1756.4,445.43 1758.34,446.76 1760.66,447.87C1762.99,448.98 1765.53,449.84 1768.3,450.44C1771.07,451.05 1773.61,451.63 1775.94,452.18C1780.37,453.18 1784.82,454.37 1789.31,455.75C1793.79,457.14 1797.89,459.02 1801.6,461.4C1805.31,463.78 1808.32,466.88 1810.65,470.7C1812.97,474.52 1814.14,479.42 1814.14,485.4C1814.14,490.83 1813.09,495.67 1810.99,499.93C1808.89,504.19 1805.93,507.79 1802.11,510.72C1798.29,513.65 1793.75,515.87 1788.49,517.36C1783.23,518.85 1777.5,519.6 1771.3,519.6C1764.66,519.6 1758.68,518.74 1753.37,517.03C1748.06,515.32 1743.52,512.91 1739.75,509.81C1735.99,506.71 1733.02,502.95 1730.87,498.52C1728.71,494.09 1727.52,489.17 1727.3,483.74L1751.71,483.74L1751.69,483.73Z" style="fill:rgb(15,75,110);fill-rule:nonzero;"/>
            </g>
            <g>
                <path d="M664.96,541.85L673.43,541.85L756.45,643.14L755.12,643.64L755.12,541.85L762.59,541.85L762.59,651.94L754.12,651.94L671.09,550.48L672.42,549.98L672.42,651.93L664.95,651.93L664.95,541.84L664.96,541.85Z" style="fill:rgb(15,75,110);fill-rule:nonzero;"/>
                <path d="M870.03,645.3L870.03,651.94L797.8,651.94L797.8,541.85L868.21,541.85L868.21,548.33L803.45,548.33L805.44,546.34L805.44,647.3L803.45,645.31L870.04,645.31L870.03,645.3ZM859.57,591.83L859.57,598.47L802.95,598.47L802.95,591.83L859.57,591.83Z" style="fill:rgb(15,75,110);fill-rule:nonzero;"/>
                <path d="M885.64,541.85L971.16,541.85L971.16,548.33L885.64,548.33L885.64,541.85ZM924.67,545.83L932.14,545.83L932.14,651.94L924.67,651.94L924.67,545.83Z" style="fill:rgb(15,75,110);fill-rule:nonzero;"/>
                <path d="M984.61,541.85L992.58,541.85L1024.96,644.97L1023.63,644.97L1059.33,541.85L1067.63,541.85L1103.33,644.97L1102,644.97L1134.38,541.85L1142.52,541.85L1107.65,651.94L1098.02,651.94L1062.82,548.49L1064.15,548.49L1028.95,651.94L1019.32,651.94L984.61,541.85Z" style="fill:rgb(15,75,110);fill-rule:nonzero;"/>
                <path d="M1191.51,649.36C1184.64,646.54 1178.72,642.63 1173.74,637.65C1168.76,632.67 1164.88,626.69 1162.12,619.72C1159.35,612.75 1157.97,605.11 1157.97,596.8C1157.97,588.49 1159.35,580.89 1162.12,573.97C1164.89,567.05 1168.76,561.1 1173.74,556.12C1178.72,551.14 1184.64,547.24 1191.51,544.41C1198.37,541.59 1205.96,540.18 1214.26,540.18C1222.56,540.18 1230.14,541.59 1237.01,544.41C1243.87,547.23 1249.8,551.13 1254.78,556.12C1259.76,561.11 1263.63,567.05 1266.4,573.97C1269.17,580.89 1270.55,588.5 1270.55,596.8C1270.55,605.1 1269.16,612.74 1266.4,619.72C1263.63,626.69 1259.76,632.67 1254.78,637.65C1249.8,642.63 1243.87,646.53 1237.01,649.36C1230.14,652.18 1222.56,653.59 1214.26,653.59C1205.96,653.59 1198.37,652.18 1191.51,649.36ZM1233.93,642.97C1239.85,640.54 1244.97,637.13 1249.29,632.76C1253.61,628.39 1256.95,623.13 1259.34,616.98C1261.72,610.84 1262.91,604.11 1262.91,596.81C1262.91,589.51 1261.72,582.81 1259.34,576.72C1256.96,570.63 1253.61,565.4 1249.29,561.03C1244.97,556.66 1239.85,553.25 1233.93,550.82C1228.01,548.39 1221.45,547.17 1214.25,547.17C1207.05,547.17 1200.63,548.39 1194.66,550.82C1188.68,553.26 1183.54,556.66 1179.22,561.03C1174.9,565.41 1171.55,570.64 1169.17,576.72C1166.79,582.81 1165.6,589.51 1165.6,596.81C1165.6,604.11 1166.79,610.84 1169.17,616.98C1171.55,623.12 1174.9,628.38 1179.22,632.76C1183.54,637.13 1188.68,640.54 1194.66,642.97C1200.64,645.41 1207.17,646.62 1214.25,646.62C1221.33,646.62 1228,645.4 1233.93,642.97Z" style="fill:rgb(15,75,110);fill-rule:nonzero;"/>
                <path d="M1298.78,541.85L1342.12,541.85C1347.32,541.85 1352.14,542.51 1356.57,543.84C1361,545.17 1364.82,547.19 1368.03,549.9C1371.24,552.61 1373.78,556.07 1375.67,560.28C1377.55,564.49 1378.49,569.47 1378.49,575.22C1378.49,580.2 1377.58,584.71 1375.75,588.75C1373.92,592.79 1371.38,596.25 1368.11,599.13C1364.84,602.01 1360.97,604.22 1356.49,605.77C1352.01,607.32 1347.05,608.09 1341.63,608.09L1303.77,608.09L1303.77,601.45L1341.8,601.45C1345.89,601.45 1349.71,600.84 1353.26,599.62C1356.8,598.4 1359.9,596.66 1362.56,594.39C1365.22,592.12 1367.29,589.38 1368.79,586.17C1370.28,582.96 1371.03,579.31 1371.03,575.21C1371.03,570.56 1370.28,566.58 1368.79,563.25C1367.29,559.93 1365.22,557.16 1362.56,554.95C1359.9,552.74 1356.8,551.1 1353.26,550.05C1349.72,549 1345.9,548.47 1341.8,548.47L1304.27,548.47L1306.26,546.48L1306.26,651.92L1298.79,651.92L1298.79,541.83L1298.78,541.85ZM1342.94,606.11L1350.91,604.61L1379.64,651.93L1370.84,651.93L1342.94,606.1L1342.94,606.11Z" style="fill:rgb(15,75,110);fill-rule:nonzero;"/>
                <path d="M1408.03,541.85L1415.5,541.85L1415.5,651.94L1408.03,651.94L1408.03,541.85ZM1446.39,602.12L1413.01,602.12L1413.01,595.64L1446.88,595.64L1478.6,541.84L1487.57,541.84L1452.53,600.46L1452.36,597.14L1489.89,651.94L1480.43,651.94L1446.39,602.13L1446.39,602.12Z" style="fill:rgb(15,75,110);fill-rule:nonzero;"/>
            </g>
            <path d="M290.37,563.94L290.5,563.21L290.75,563.56L290.37,563.94Z" style="fill:rgb(2,38,43);fill-opacity:0.6;fill-rule:nonzero;"/>
            <path d="M515.87,611.58C519.43,604.9 522.53,598.02 525.16,590.98C537.26,558.61 539.44,522.92 530.82,488.9C530.37,487.1 528.54,486.01 526.74,486.47C524.95,486.92 523.86,488.75 524.31,490.54C532.6,523.24 530.5,557.53 518.89,588.63C516.79,594.25 514.37,599.78 511.65,605.17C509.44,609.55 507.02,613.84 504.4,618.03C504.11,618.51 503.81,618.98 503.5,619.45C502.23,621.46 500.91,623.44 499.52,625.39C498.86,626.35 498.17,627.31 497.47,628.26C496.57,629.49 495.65,630.7 494.7,631.91C489.37,638.78 483.43,645.27 476.9,651.33C475.06,653.03 473.17,654.71 471.24,656.34C467.29,659.68 463.14,662.87 458.81,665.88C455.38,668.26 451.69,670.66 447.94,672.84C444.63,674.76 441.28,676.52 438.01,677.99C437.87,678.06 437.73,678.13 437.6,678.21L437.57,678.23L437.55,678.23L437.39,678.36L437.24,678.48L437.18,678.52L437.11,678.58L436.92,678.77L436.88,678.82L436.86,678.84L436.84,678.87L436.81,678.9C436.58,679.18 436.38,679.5 436.25,679.86C436.11,680.22 436.04,680.6 436.03,680.97L436.03,681.33L436.06,681.49L436.1,681.74L436.16,681.97C436.2,682.13 436.26,682.28 436.32,682.43C436.39,682.57 436.46,682.71 436.54,682.84L436.56,682.86L436.58,682.89L436.69,683.05L436.81,683.2L436.85,683.26L437.15,683.56L437.17,683.56L437.23,683.63C437.51,683.86 437.83,684.05 438.19,684.19L459.9,692.46L481.56,700.72C481.75,700.79 481.94,700.85 482.15,700.89C483.12,701.28 484.25,701.17 485.13,700.55C485.3,700.44 485.45,700.3 485.6,700.15L533.16,650.87C534.19,649.8 534.31,648.19 533.56,646.99L515.87,611.58Z" style="fill:rgb(15,75,110);fill-rule:nonzero;"/>
            <path d="M404.51,688.74C371.81,697.03 337.52,694.93 306.43,683.31C290.77,677.46 275.92,669.2 262.48,658.61C260.48,657.05 258.5,655.42 256.56,653.74C249.02,647.21 241.98,639.9 235.58,631.84C234.27,630.21 232.99,628.53 231.75,626.83C231.38,626.34 231.02,625.85 230.66,625.35C230.16,624.65 229.66,623.95 229.17,623.24C226.79,619.8 224.4,616.12 222.21,612.36C220.32,609.12 218.59,605.83 217.14,602.61C217.11,602.55 217.09,602.5 217.06,602.44C217.06,602.42 217.04,602.39 217.03,602.37C216.97,602.25 216.91,602.14 216.84,602.03L216.82,602L216.82,601.97L216.7,601.81L216.58,601.67L216.53,601.61L216.47,601.54L216.37,601.43L216.28,601.35L216.24,601.31L216.21,601.29L216.19,601.26L216.15,601.24C216.1,601.2 216.05,601.16 216,601.12C215.76,600.94 215.49,600.79 215.2,600.68C214.83,600.54 214.46,600.47 214.09,600.46L213.72,600.46L213.56,600.49L213.32,600.53L213.08,600.59C212.93,600.63 212.78,600.69 212.62,600.75C212.48,600.82 212.35,600.89 212.22,600.97L212.16,601.01L212,601.12L211.8,601.28L211.73,601.34L211.54,601.53L211.5,601.58L211.42,601.66C211.19,601.94 211,602.26 210.86,602.62L202.59,624.32L194.34,645.99C194.26,646.18 194.2,646.37 194.16,646.58C193.77,647.55 193.89,648.68 194.5,649.56C194.61,649.73 194.75,649.88 194.9,650.03L244.19,697.59C245.25,698.62 246.86,698.74 248.06,697.99L283.48,680.3C290.15,683.86 297.03,686.96 304.07,689.59C336.44,701.69 372.13,703.87 406.15,695.25C407.95,694.79 409.04,692.97 408.59,691.17C408.13,689.38 406.31,688.29 404.51,688.74Z" style="fill:rgb(15,75,110);fill-rule:nonzero;"/>
            <path d="M199.2,573.15C199.65,574.94 201.48,576.03 203.27,575.58C205.07,575.12 206.16,573.3 205.7,571.5C197.42,538.81 199.51,504.51 211.13,473.42C217.24,457.08 225.97,441.62 237.23,427.73C243.66,419.77 250.92,412.33 258.98,405.54C262.87,402.26 266.95,399.13 271.21,396.17C274.64,393.78 278.33,391.39 282.08,389.2C285.38,387.28 288.73,385.52 292.01,384.05C292.15,383.99 292.29,383.91 292.42,383.83L292.44,383.81L292.47,383.81L292.63,383.69L292.78,383.57L292.84,383.52L292.9,383.46L293.01,383.36L293.09,383.27L293.14,383.23L293.16,383.2L293.18,383.18L293.21,383.14C293.44,382.86 293.63,382.55 293.77,382.19C293.91,381.82 293.98,381.45 293.99,381.08L293.99,380.85L293.98,380.71L293.96,380.55L293.92,380.31L293.86,380.07C293.82,379.92 293.76,379.77 293.69,379.62C293.63,379.47 293.55,379.34 293.47,379.21L293.45,379.18L293.45,379.15L293.33,378.99L293.21,378.84L293.16,378.79L293.1,378.72L292.87,378.49L292.84,378.47L292.82,378.44L292.78,378.42C292.5,378.18 292.18,377.99 291.83,377.86L270.12,369.58L248.46,361.33C248.27,361.25 248.07,361.19 247.87,361.15C246.89,360.77 245.77,360.88 244.89,361.49C244.72,361.61 244.56,361.74 244.42,361.89L196.86,411.18C195.83,412.25 195.7,413.85 196.46,415.05L214.14,450.47C210.58,457.14 207.48,464.02 204.85,471.07C192.76,503.43 190.58,539.12 199.2,573.15Z" style="fill:rgb(15,75,110);fill-rule:nonzero;"/>
            <path d="M496.49,432.72C497.59,434.19 498.66,435.68 499.72,437.2C502.11,440.63 504.5,444.32 506.69,448.07C508.61,451.37 510.37,454.72 511.84,458C511.9,458.14 511.98,458.28 512.06,458.41L512.08,458.43L512.08,458.46L512.2,458.62L512.32,458.77L512.37,458.83L512.43,458.89L512.53,459L512.62,459.08L512.66,459.12L512.69,459.14L512.71,459.17L512.75,459.2C513.03,459.43 513.35,459.62 513.7,459.76C514.07,459.9 514.44,459.96 514.81,459.97L515.18,459.97L515.34,459.95L515.58,459.91L515.82,459.85C515.97,459.8 516.12,459.75 516.27,459.68C516.42,459.61 516.55,459.54 516.68,459.46L516.71,459.44L516.74,459.44L516.9,459.32L517.05,459.2L517.1,459.15L517.17,459.09L517.4,458.86L517.42,458.83L517.45,458.81L517.47,458.77C517.71,458.49 517.9,458.17 518.03,457.81L526.31,436.11L534.56,414.45C534.64,414.26 534.7,414.06 534.74,413.86C535.13,412.88 535.01,411.76 534.4,410.88C534.28,410.71 534.15,410.55 534,410.4L484.71,362.85C483.65,361.82 482.04,361.69 480.84,362.45L445.42,380.13C438.75,376.57 431.87,373.47 424.82,370.84C392.46,358.75 356.77,356.57 322.74,365.19C320.95,365.64 319.86,367.47 320.31,369.26C320.77,371.05 322.59,372.15 324.39,371.69C357.08,363.41 391.38,365.5 422.47,377.12C438,382.92 452.75,391.11 466.1,401.57C477.33,410.36 487.58,420.77 496.49,432.72Z" style="fill:rgb(15,75,110);fill-rule:nonzero;"/>
        </g>
    </g>
</svg>
